/* XPM */
static char *_1f400fe5ac4454eaaa2a35c89011b53SR5a1zWBJJP7bURd[] = {
/* columns rows colors chars-per-pixel */
"70 70 229 2 ",
"   c None",
".  c #010102",
"X  c #040C06",
"o  c #02010B",
"O  c #0B020B",
"+  c #040E0A",
"@  c #0B0C0B",
"#  c #0D0002",
"$  c #13030B",
"%  c #061204",
"&  c #0A1404",
"*  c #06140B",
"=  c #09150C",
"-  c #041B0C",
";  c #0A1B0D",
":  c #0F1C06",
">  c #121E0C",
",  c #11140D",
"<  c #010311",
"1  c #020D13",
"2  c #080715",
"3  c #190015",
"4  c #150C14",
"5  c #170517",
"6  c #011412",
"7  c #0C1211",
"8  c #031C13",
"9  c #0D1D12",
"0  c #141314",
"q  c #111A13",
"w  c #1C161E",
"e  c #1B1B1A",
"r  c #181F18",
"t  c #02230C",
"y  c #0C230D",
"u  c #00260A",
"i  c #12240B",
"p  c #142A0D",
"a  c #1A2D0D",
"s  c #17220B",
"d  c #00310E",
"f  c #1B330D",
"g  c #11300F",
"h  c #022316",
"j  c #0C2313",
"k  c #032D15",
"l  c #0E2A16",
"z  c #0D2619",
"x  c #042C19",
"c  c #0D2D18",
"v  c #022018",
"b  c #122414",
"n  c #122A16",
"m  c #1A2E12",
"M  c #122518",
"N  c #1D241B",
"B  c #112D19",
"V  c #1E2B1E",
"C  c #013513",
"Z  c #0B3416",
"A  c #023C15",
"S  c #0A3B15",
"D  c #013419",
"F  c #0F341A",
"G  c #023D1A",
"H  c #0D3C1B",
"J  c #153216",
"K  c #1C3214",
"L  c #11311A",
"P  c #133B1C",
"I  c #1B3C1C",
"U  c #193917",
"Y  c #203415",
"T  c #233D16",
"R  c #233E1A",
"E  c #21291E",
"W  c #200025",
"Q  c #1D3123",
"!  c #1E2320",
"~  c #212321",
"^  c #212F21",
"/  c #223E20",
"(  c #024116",
")  c #01441A",
"_  c #0D441D",
"`  c #024C1C",
"'  c #0B4C1E",
"]  c #0F4A17",
"[  c #12431D",
"{  c #1C441D",
"}  c #124B1F",
"|  c #1C4A1C",
" . c #1F4116",
".. c #03541E",
"X. c #09521F",
"o. c #015B1F",
"O. c #095C1F",
"+. c #17541E",
"@. c #254417",
"#. c #24411B",
"$. c #29461B",
"%. c #2A4B1A",
"&. c #2E511B",
"*. c #24501B",
"=. c #31531E",
"-. c #32591E",
";. c #024B22",
":. c #0D4D20",
">. c #124D21",
",. c #174520",
"<. c #055621",
"1. c #0B5420",
"2. c #035D20",
"3. c #0A5C21",
"4. c #135321",
"5. c #1A5522",
"6. c #145D23",
"7. c #1B5D23",
"8. c #244A21",
"9. c #274821",
"0. c #2C5322",
"q. c #275C25",
"w. c #335421",
"e. c #345B24",
"r. c #325C28",
"t. c #385B28",
"y. c #304D23",
"u. c #026122",
"i. c #0C6224",
"p. c #006A2B",
"a. c #0B6C2C",
"s. c #03672A",
"d. c #136425",
"f. c #1B6525",
"g. c #146926",
"h. c #1D6A26",
"j. c #1C6529",
"k. c #146D2A",
"l. c #1B6D29",
"z. c #1D732C",
"x. c #16752D",
"c. c #1C7A31",
"v. c #1C7330",
"b. c #087430",
"n. c #236525",
"m. c #2A6526",
"M. c #256B27",
"N. c #236C2A",
"B. c #2E6928",
"V. c #3A6525",
"C. c #3D6A26",
"Z. c #356229",
"A. c #356C2A",
"S. c #3C6C2A",
"D. c #376426",
"F. c #23732D",
"G. c #2B732A",
"H. c #24792F",
"J. c #2A7B2F",
"K. c #31732C",
"L. c #3C732B",
"P. c #347B2D",
"I. c #3C762A",
"U. c #247D31",
"Y. c #2A7E32",
"T. c #327E31",
"R. c #3E7E31",
"E. c #406D2A",
"W. c #43742B",
"Q. c #457A2E",
"!. c #497D2E",
"~. c #467E31",
"^. c #4A7C33",
"/. c #467530",
"(. c #456F33",
"). c #3A812F",
"_. c #34822F",
"`. c #278032",
"'. c #2C8333",
"]. c #2D8B37",
"[. c #338534",
"{. c #3B8432",
"}. c #348A36",
"|. c #3B8D36",
" X c #3B8B38",
".X c #3D9037",
"XX c #3E9239",
"oX c #4A812E",
"OX c #448332",
"+X c #4C8432",
"@X c #438B34",
"#X c #4D8A34",
"$X c #528D34",
"%X c #459236",
"&X c #4A9336",
"*X c #449439",
"=X c #4B9539",
"-X c #46993A",
";X c #4B9B3B",
":X c #549237",
">X c #559439",
",X c #58963B",
"<X c #539B3A",
"1X c #5A9C3B",
"2X c #4EA13D",
"3X c #54A33E",
"4X c #5CA33D",
"5X c #5BAA3F",
"6X c #56A83F",
"7X c #60A53E",
"8X c #61A93F",
"9X c #609C43",
"0X c #5CAC41",
"qX c #59A740",
"wX c #5FB142",
"eX c #62A640",
"rX c #63AD41",
"tX c #64B343",
"yX c #69B544",
"uX c #66B944",
"iX c #6BBC45",
"pX c #6DBE48",
"aX c #6EB64C",
"sX c #6EC146",
"dX c #6EC248",
"fX c #70C247",
"gX c #71C448",
"hX c #74C949",
"jX c #79CE51",
/* pixels */
"                                                                        . T W.!.!.!.Q.=.$ O                                                 ",
"                                              * t . ;  .&.-.&.a & X % . b C.7X7X4X4X8XoXI - - ;                                             ",
"                                            r j A u *.I.oX#X!.w.p . % . { &XgXuXwXwXhX4XB.' H p $                                           ",
"                                          0 b H O.o.OXtXtXiXrX#X@.. X - M.-XtX-X`..XwX3X XU.f.U . ; = ; K $.=.%.9.                          ",
"                ~ w 5 ^.aXjX9Xt.< ^ ~ w r M n H 2.).5XdXuX0XqX3X#X&.. t f.[.OXF.p.H.-X*X}.].F.6.A S - g m.#X4X<X,X(.W 5                     ",
"              o / w.r.:XpXjXrX(.y.C.t.#.o B B H ..&X5XwX*Xa.z.6XrXoX. t ` o.....l.H.c.z.U.H.z.i.o.' t [ T.5XiX8XpX>Xy., O                   ",
"            4 . E.eXtXuXpXdXiXrX8XtX8XW.. B B H o.h.G.G.z...h.;X0X=X' y ) u.o.o.i.i.i.u.i.i.3.u.u.) d ( g.F.G.@XuXpX1XT o o                 ",
"          c ,.S.qXpXuX5X3X3XtXpXhXfXiX@X* z 1 8 G G k k ( G +.I.=X*XF.+.} ..o.u.u.o.....` A C C A t X h ) ..` d.=XyXtXA.7.,./               ",
"      = O k f.6XpXtX*X'.c.`.-XwXiXuXuX&X( - s R 9.8.8.$.I L Z _ d.U.'.F.[ t 2.2.2.2.f.f.f.*.K Y U m : h Z X.2.2.u.<XwX X].N.Q               ",
"      l j D M.tXrX@Xh.i.i.g.F._.@X<XtX&X- . E.4X4X1X6X1XC.b o P :.3.l.d._ l H k < D #X6XrX4X4X7X1X#XG.i.n.H ) u.2.[.*X].].F.U @             ",
"    V F c D 7.3X@Xh...o.o.o.o...o.G.;X&XK.C.1XpXpXpXfXpX1XV.q 9 F ..<.<.H M L Z.S.~.tXiXtX0X6X0XyXtX2X}.F.[ A <.2.k.H.U.`.h.] u X           ",
"  ~ N L L c P n.f.2.2.2.2.o.o.o.o.o.F.=X8XtXiXsXfXiXsXpXpX,Xt.X B Q :.2.G z 8.<XrXtXiX0X-X|.J.|.6XdXuX;XH.X.H _ 2.2.2.i.i.3.O.C * O         ",
"  0 9 c L L I [ >.>.>.>.+.3.o.o...<.4.>XhXdXdXiX3X3X2X3XuXuX1X&.+ h ,.} k z 0.rXyX#X#XL.B.v.i.h.).;X=X_.g.:.Z F _ ..u.u.2.2.2.) t # X       ",
"  r j B l z 8 6 8 x z v k ) 7.G.n.G [ #XtXtXtX5X|.[.`.[.6X8XuX:X-.b L L x z 8.9X,X0.,.I F G ` <.2.7.f.f.1.H c L F ' ..<.o.2.u.:.l O .       ",
"  Q L B y % X % % % * 1 < n L.#XOX1 } G.{.{.@X.X`.`.H.`.'.3XiXiX:X0.. L L l I Z.r.8 8 c B o 1.d.<.6 x _ P L B L B H _ _ 1.2.2.:.c X .       ",
"  L Q B + %.W.Q.!.!.+X+XW.Q.<X0X1XA.7.O.f.z.'.'.'.'.'.'.`..X3XiX8XQ.h B L F L L j . o . 9 w.OX=X@Xe.b . o l L c B L L L _ ' .._ c X .       ",
"q L L z . C.4X8X5X4X0XrXrXrXuXfXuX<XM.` o.g.c.H.J.Y.'.'.H.c.|.5XtX=X;.P B L c 6 p %.%.f -.$XrXiXtX:Xt.T R L c L L L n n F H H P l * .       ",
"= n c * . W.iXhXuXqX3XtXsXhXdXhXfXtXG...g.F.z.z.z.l.l.z.H.u.F.<XtX2Xa.>.L L L n e.oX$XoX:XtXgXhXgXyX>XQ.Q.#.6 L L L c B B B B L l - .       ",
"9 l l : T $XsXhXtXXX].;XwXuX5X8X8X3XM.` O.i.i.i.i.3.i.3.i...f.%X3X*Xp.<.[ c o . W.8XiXuXuXtXtXwX5X8XuX8X1X%.. U L L F P L b n Q B ; .       ",
"9 9 8 > Q.8XuXsX3XU.p.}.*X@XOX@X@XP.| A } ..o.o.o...o.o.o...O.K.R.J.u.o.X.} R . oXhXdXhXpX6X;X&X2X5XhXjX8Xe.. j B B H ' S ; - x j ;         ",
"; * o : 4XsX5X5X&XY.F.N.j.<.) _ ' ) L B P 1.1.X.2.2.u.2.u.2.1.;.` ..2.o.u.M.W.W.,XuX8X8X3X}.}.|.2X3XsXsX8X!.K . j n H 2.( - . . . .         ",
"@ . X $.8XtX.XP.M.d.} | H k - 8 8 6 h 9 t k x ( 1.2.3.2.2.1._ c G ` 2...i.).8X8XiXiX2XXX}.'.%X6X8X5XsX8XsX8X!.. X 9 H <.f.n.%.T K p t       ",
"o o &.#X8X3Xg...) ) z 7 2 = q q ; 9 8 8 7 @ O 8 ( ' ' ' 1._ L M J } X.) X.%XgXfXfXuXXXc.a.U.*XqX5X5X3X6X5XsX4XV.p 1 H <.).&X#XoXQ.B._       ",
"  r oXsXsX<Xi.o.` I L - = m R R T $.K K #.Y Y b . + j B B B L L L B B h X.@XyXiXiXtX%X'.Y.Y.Y.Y.].'.c.`..X0XyX8X%.1 D <.-XtXyXpXtX-X3.c     ",
"  E +XiX;XG.o.u.X.L b . @.Q.>X,X>X$X:X>X>X$X,X^.s . o @ M B L B B B M h 1.@XtXiXeX*X].Y.Y.Y.Y.U.k.3.u.3.j.{.qXrXm.D z H K.{.@XrXtX-X<.t $   ",
"  E S.3XM...o.<.[ l . & E.9XyXpXyXyXyXyXrXyXaX9XE.t.%.b 8 z L B H Q _ ) ;.P.3X4X%Xk.J.Y.Y.J.U.v.d.2.<...` <.{.;Xh.) z n G D ;.@X&X|.<.d & e ",
"w n >.f.i.o.2.[ l . . V.,XyXtXtXyXeXeXeXqXyXrXeXeXeX$X9.8 x J B P X.2.<.1.3.f.M.d.d.H.Y.J.l.3.2.3.2.2.2.2.2.d.j.u.' B F z _ <.d.g.d.2.` Z 3 ",
"M B ) <.u.<._ c . i S.,XrXiXyXyXyXtX>X@X=X=X=X<XyXpXyX>Xr.z 2 B _ 1.u.2.2.2.....o.3.g.z.j.3.<.<.2.<.2.2.2.:.` 2.2.1.' ( 6 o * ) o.u.u...Z 3 ",
"c c _ 2.2.' B % : V.4XtXtXrXtXtXrXqX[.z.'.U.z.{.0XrXtXyX,XZ.z B P ' 2.<.2.2.2.2.o.2.2.2.o.2.o.2.2.<.u.2.' P _ o.o.o.d.G.m.=.&.| ' ..o.` Z 3 ",
"L L _ 2.' P B . C.7XsXtX;X|.*X*X*X|.'.'.'.'.z.l.P.M.=XuXdX1Xr.1 c P P _ 1.2.2.2.2.2.o.o.o.o.u.o.2.2.2.:.L L F ' O.` M.3XrXrX8XW.p . u u ; 4 ",
"L L H ' P L B . !.yXuX;X'.k.z.z.U.'.'.H.z.F.g.2.2.) B.#X1X#X0.8 c L B L ' X.` ' O.2.o.u.u.1.X.+.1.1.>.,.c B c H ..P.3XiXgXpXqX:X+X!.=.i . N ",
"L L L L B L B . oXtX2XJ.2.2.o.2.k.'.`.z.u.i.2.o...G Z ,.0.8.Q Z F B l n F F P L _ 2.o.o.O._ P L L F F c B L c H 2.&XtXuXsXwX-X;XyXrX+X@.. E ",
"L L c B B n - . $XtX%XM...O.o.2.d.l.l.i.o.u.1._ _ P L B c F P P P L L L B B B B H _ _ } S . . . . . . X n U I ,.i.'.&X@X@X{.[.}.0XuX6Xm.* 4 ",
"n L L L L l ; . W.;X_.6...i.2.2.2.i.u.2...;.' L L J j . . . . X + j L L L B B B F F L - y %.C.C.C.W.V.@.. o o - C ] +.f.d.f.x.`.-X6X6XJ.G 3 ",
"; l L L L B l 1 q.K.h.O.o.o.2.2.u.o...` H _ L n = : y a K K f f p i B L L c L F B m b X %.oX4X8X1X8X>XW.f a f f a s g ) ` o.i.k.'.|..XY.5.O ",
"X ; j j c L Q M [ X.O.u.2...' ;.' ' ' P B B L 9 . . #.W.+X+XoX$XE.T . . l I L L b o . T !.8XsXiXtX6X3X:X+XoX+X+XoX+XW.D ` o.i.g.z.z.z.l.+.z ",
". X * ; n n 8 x ( ..o.o.<.>.I I _ H P F B B * i %.@.W.4X5X8X8XsX1XQ.$.%.B 8 L B c P %.+X8XsXhXsX3X.X*XqXyXyXrXtXyXyX4XD.X...o.d.i.u.2.i.<.' ",
". . X j B M B 5.d.i.2.<.} L n B B m n B L l . %.+X#X1XiXhXfXhXhXiX4X+X+Xw.o B q P m.!.5XsXsXsXtX-Xp.'.0XhXgXdXgXgXhXiX,XK.o.o.o.o.o.o.o.2.X.",
". . ; L x ,.A.@X[.h.3.>.L 1 o o o < n L j . Y !.yXiXpXpXsXsXsXfXiXiXpX8X!.m . . 5. X3X0X0X0XtX5X-Xc.[.;XyXpXpXiXtX0XtXsX3XK.` ..o.u.u.O...( ",
"O . - c ) R.qXtX3XJ.;.Z = ; J f m b j + . p !.8XiXfXfXiXfX8XsX8XpXfXgXfX8XQ.p . >.Y.{.OX).|.-X*X|.'.'.|.2XyXpXtX-X|.<XiXuX<Xm.' ..i.o...( y ",
"@ X 8 c K.3XfXhXwX'._ . p =.C.Q.C.D.f . a C.rXgXiXiX8XsXiXsXiXsXiXiXiXsXsX5XC.a Z 7.` ) ..u.a.H.'.'.`.U.}.6XiXtX}.b.'.3XiXyX#Xm.' ..<...d # ",
"; 8 L 0.6XpXpXpXqX{.q.X =.:XyXpX8X1X&.. D.5XpXsXsXiXgXsXgX8XsXsXiXyXuXuXsXiXrXE.Y  .+.2.o.o.k.H.'.Y.U.U.U.|.3XtX}.U.'.'.qXsXyXQ.I h 4.' Z 3 ",
"8 n Z.,XuXfXuX4X3X3X,X#X,XtXfXfXhXuX>X$X4XpXsXuXiXiXiXsXsXsX8X8X3X;X<X3XtXdXiX4X$X#XG.d.o.o.i.l.l.l.l.l.z.U..X-X}.'.U.U.3XsXfX#X,.< [ S Z 3 ",
"8 L +XpXuXtX5X'.;XuXsXgXsXuXtXtXiXiXsXdXsXsXtXtXtXuXiXiXsXsXsX6X'.b.H.[.6XtXtXtXdXiX{.+.` 3.2.2.o.2...2.d.U.'.`.'.'.Y.U.-XtXiX>XZ.z L l q 0 ",
"8 L +XyX&XP.|.U.;XiXdXdXiX3X}.*X5XpXsXpXpXiX6X|.|.0XuXsXiXsXyX2X}.c.'.'.|..X|.|.qXiXS.J k 1.2.2.2.2.o.2.o.g.F.'.'.'.U.g.H.;XtXpX<Xe.< z m w ",
"h Q A.=Xf.z.-X;X0XiXsXiX3X[.p.z.|.3X<X<X<X<X|.c.x.qXiXdXpXdXpXqX}.c.[.'.`.H.U.c.XX<Xe.@ h 1.2.2.2.2.2.o.o.o.z.'.'.'.U.i.P.3XuXhXtXR.D M N   ",
"F L _ 2.2.%XyXpXuXiXiXqX|.u.2.<.<.3.3.u.u.3.H.'.`.3XtXiXyXiXuXqX}.c.'.'.'.'.'.'.].Y.,.9 z X.2.2.2.2.2.O.o.i.z.'.Y.'.c.u.<XiXsXpXwX.X1.V     ",
"L c ) 3.-XtXuXqX;X;X;X|.z.2.1.[ ( ) ..o.o.o.z.'.'..X;X;X-X-X-XXX'.'.'.'.'.'.'.'.'.Y.{ 7 j _ _ _ _ H _ X.o.o.i.l.g.l.i.2.<XfXhX5X-X'.7.j O   ",
"L c G j.8XhXiX%XH.x.U.l.u.o.X.P b H <.o.o.2.H.'.'.U.'.'.'.U.U.H.H.H.H.H.H.`.'.'.Y.H.>.Z l B F B n B ,.<.u.o.o.2.2.2.o.o.@X5X5X%X].H.M.S X N ",
"L l ) l.5XgX8X|.u.o.i.2.2.2.X.L M _ <.o.o.u.F.'.'.'.U.U.'.U.k.2.i.i.i.i.d.z.'.'.U.d.<.:.L B B B B P <.<.2.2.2.o.o.o.o.o.h.G.G.J.'.'.z.X.t 3 ",
"B c _ 3.OX<X&XF.o.o.O.u.2.1._ F c H O.2.2.u.g.F.'.'.'.'.U.g.2.o.u.o.u.o.o.d.z.z.g.2.u.` F B n L _ 1.2.2.2.o.o.2.2.o.2.u.2.O.O.F.H.H.g...Z 3 ",
"B B :.2.d.f.f.O.2.o.o.o..._ F n F H <.u.2.2.2.g.U.'.'.'.F.g.2.2.o.o.o.o.o.o.2.i.2.o.2.:.H B n H :.2.u.2.2.2.2.2.o.3.2.2...` ..z.F.g.u...H 3 ",
"B L ' 2...` o.o.2.o.2.1._ L B n F H ..2.2.2.o.2.d.U.'.].'.z.i.2.2.2.2.2.u.2.o.o.o.2.2.' H B B L H ' 2.2.2.2.2.2.2.o.2.2.1.:.<.g.g.u.2...H 3 ",
"L L H 1.o.o.2.o.X.X...' P l F B B _ 2.u.2.2.2.o.2.l.z.H.U.h.i.o.2.2.2.2.2.2.2.2.2.2.2.X.L c B c c H :.2.u.2.2.2.2.2.o.u._ P 1.u.o.o.2.) c 3 ",
"L B F _ X.i.3.2.X.( H F F B L B L H ..o.2.2.u.o...u.d.d.g.d.3.o.2.2.2.2.2.2.2.2.2.o.u...H n L L l n H ;.2.2.2.2.2.o.2.2._ H X.o.u.o.X.Z 9 4 ",
"l n B B _ ' ' o.X.L M B B L L c L L ' O.u.2.2.2.2.o.o.o.o.o.2.2.2.2.2.2.2.2.2.2.2.o.u.' L c L L L B L ,.1.2.u.u.u.u.2.:._ ' O.u.u.2.' l 4 0 ",
"= l L L L L P 1.' L n c L B n B L c P ` u.2.2.o.2.2.2.2.o.o.o.i.2.2.u.o.u.O.u.o.2.2.2.' L B B B B L B F H 1.2.<.X.O.O.H ' 2.i.2.2.1._ c = w ",
"X z L L B z n H [ L L L c z z c L B B :.2.2.2.2.2.2.2.2.2.2.o.o.2.2.u.2.o.o.u.O.2.2.:.H L L z j l L c n L P :._ _ _ Q n ` 2.2.;._ _ H c ; 4 ",
"+ j l c L F Z n c L B L n ; = l L B F _ 1.1.2.u.2.2.2.2.2.2.o.u.2.2.2.2.O.o.o.o.2.2._ B c L j * 9 F L L F n n B L B B L _ ' X.[ B n L z 9 4 ",
", = j L L L L B B L F L l ; * l L L L F H H :.2.u.2.2.2.2.2.2.2.2.u.O.2.u.u.o.u.2.2.P c B L j * j c L B L c n B B B B L k k H F B B L l b w ",
"w O ; L L L L L F L L L l ; - l L L B n M M H X.2.o.o.2.2.2.2.o.o.u.2.2.o.2.2.O...' P B L L j ; j c F B Z L B L c F L L @ . q L L Z l b N   ",
"  0 ; c B L c L B L B L B 9 ; j L F L F Z L B P O.o.2.2.2.2.o.u.u.o.2.o.o...o.o.' L B F L B - % 9 F L c B L L L L L L B : 9 B B B l ; e     ",
"  0 = * c L L L B F B L L B y 9 j L c L L B B L H X.2.2.2.2.2.2.o.O.2.2.' H ] _ H B c L c j X X z B L B c L B B B L B ; y l F j - * X 0     ",
"    . . 9 c B c L B Z B L L j * ; L L B L L Z L b _ X.O...X.1...X.X...' Z M n b B B L L j X . - l L L L L B F F L L l . 8 l z % . . . 0     ",
"      @ . - B L F B B L L L j = - L L B L c L F B L F F F H F F H L F F L F L L B L L j * . ; n L B L L c L L B F B l = @ @ = @ @           ",
"        O % j 9 n B L L L z = X = l L L L L L L L c B B B B B B B c B L B B B L L L n * . = l L L L L L L L L L c n r                       ",
"        0 @ @ O 9 l B B b ; . . @ q n B B B L L L L L F L L L c L L L L F L B c c n q @ X j B B c B B B c B c B B b 0                       ",
"                q * = 7 * X @       q * * * n L L L L L L L L L L L L L L L L j * *   e = X * = = * = * = = * * q ~                         ",
"                  . . X . .           . . . ; M j j j j z j j j z j j j j j M q O .       . . X O X . . . X . . 7                           ",
"                                          . . = X * X + % + % X % X X X X * ,                                                               "
};
