/* XPM */
static char *a50c3734de514b81b2e889df2cd6c2720P9Qjg4hS4Qv20ce[] = {
/* columns rows colors chars-per-pixel */
"70 70 203 2 ",
"   c None",
".  c #000001",
"X  c #000D00",
"o  c #00000F",
"O  c #110F0B",
"+  c #001300",
"@  c #001B00",
"#  c #0D1B00",
"$  c #1B170B",
"%  c #261B12",
"&  c #002200",
"*  c #0A2100",
"=  c #112100",
"-  c #252103",
";  c #29230C",
":  c #272405",
">  c #2B2112",
",  c #332615",
"<  c #362916",
"1  c #3A2C17",
"2  c #34251A",
"3  c #3C2C19",
"4  c #39261F",
"5  c #3F3019",
"6  c #3D2925",
"7  c #392722",
"8  c #48371D",
"9  c #48371D",
"0  c #422B2A",
"q  c #452829",
"w  c #4A2E32",
"e  c #582A37",
"r  c #4D3034",
"t  c #51372C",
"y  c #5A4424",
"u  c #554022",
"i  c #664D2A",
"p  c #664C2B",
"a  c #6D522D",
"s  c #785B31",
"d  c #4F460B",
"f  c #5D3945",
"g  c #692D45",
"h  c #67394A",
"j  c #7A3452",
"k  c #734357",
"l  c #7C4860",
"z  c #896838",
"x  c #95723E",
"c  c #99753F",
"v  c #937731",
"b  c #906D3C",
"n  c #87375B",
"m  c #953B66",
"M  c #A53F72",
"N  c #9A7541",
"B  c #A37D44",
"V  c #8F526F",
"C  c #965775",
"Z  c #884E69",
"A  c #A94074",
"S  c #935764",
"D  c green",
"F  c #38FD22",
"G  c #67F54E",
"H  c #7DEF60",
"J  c #BE9F39",
"K  c #BAA127",
"L  c #FF9400",
"P  c #FF931E",
"I  c #C09E3F",
"U  c #FF9324",
"Y  c #FFFD00",
"T  c #FFF30A",
"R  c #FFEF35",
"E  c #AB8347",
"W  c #B78D4D",
"Q  c #BC914F",
"!  c #BE9250",
"~  c #C19D43",
"^  c #C49B4C",
"/  c #C89F4D",
"(  c #C49653",
")  c #C79954",
"_  c #CB9C56",
"`  c #CA975B",
"'  c #C89858",
"]  c #FF8F57",
"[  c #CDA151",
"{  c #D3A359",
"}  c #CE9266",
"|  c #CF9368",
" . c #D19269",
".. c #D09367",
"X. c #D68E74",
"o. c #DA8A7B",
"O. c #FF927C",
"+. c #FF9277",
"@. c #FF926F",
"#. c #97E677",
"$. c #8AEB6A",
"%. c #FFE55D",
"&. c #FFEA4D",
"*. c #FFDD72",
"=. c #FFE460",
"-. c #BE4684",
";. c #A55E82",
":. c #AA6186",
">. c #AD6288",
",. c #B2658C",
"<. c #B86992",
"1. c #BB708F",
"2. c #C6498A",
"3. c #D84D96",
"4. c #DC519A",
"5. c #E2549F",
"6. c #C26E99",
"7. c #C8729E",
"8. c #EE739C",
"9. c #E97B94",
"0. c #F37194",
"q. c #F954AC",
"w. c #FF4BBC",
"e. c #FF55B4",
"r. c #FE5BB3",
"t. c #FF55B8",
"y. c #FF5DBA",
"u. c #EA52A2",
"i. c #D778AA",
"p. c #DD7FB1",
"a. c #CF76A4",
"s. c #E767AA",
"d. c #F769A9",
"f. c #FF63B5",
"g. c #FC6BB6",
"h. c #FE6BB8",
"j. c #FD64B8",
"k. c #E47EB4",
"l. c #FD72BB",
"z. c #F878B9",
"x. c #F370A2",
"c. c #FF69C1",
"v. c #FE7CC2",
"b. c #FF77C3",
"n. c #FF7ED5",
"m. c #00AEFF",
"M. c #00B2FF",
"N. c #23ABFE",
"B. c #50AAFC",
"V. c #67A9F9",
"C. c #74A8F7",
"Z. c #DE8682",
"A. c #E08486",
"S. c #E3818B",
"D. c #FF9287",
"F. c #FF9297",
"G. c #DF80B2",
"H. c #FF92A6",
"J. c #EA86BB",
"K. c #E784B8",
"L. c #FD8ABD",
"P. c #FF91B8",
"I. c #FF83AE",
"U. c #DCBAAF",
"Y. c #FFBAA9",
"T. c #FFA8BB",
"R. c #E5B1B6",
"E. c #AADC86",
"W. c #BCD294",
"Q. c #BAD392",
"!. c #C6CC9D",
"~. c #FFC39D",
"^. c #FFC997",
"/. c #FFD288",
"(. c #FFC1A1",
"). c #B79FE7",
"_. c #8AA6F3",
"`. c #96A5F1",
"'. c #A6A2ED",
"]. c #B6A0E9",
"[. c #D698DD",
"{. c #C99ADE",
"}. c #FE83C4",
"|. c #F38BC3",
" X c #FE8CC6",
".X c #FE8DCB",
"XX c #FF81CC",
"oX c #FF93C7",
"OX c #F79CC5",
"+X c #FD9DC3",
"@X c #FE92CC",
"#X c #F595CC",
"$X c #FF85D2",
"%X c #FF8AD2",
"&X c #FF8CD8",
"*X c #EA96D5",
"=X c #FF94D1",
"-X c #FF98D3",
";X c #FF9AD9",
":X c #F394D2",
">X c #F3A3C3",
",X c #C69DE3",
"<X c #D29BE0",
/* pixels */
"                                                                                                                                            ",
"                                                                                                                                            ",
"                                                                                                                                            ",
"                                                                                                                                            ",
"                                                                                                                                            ",
"                                                                                                                                            ",
"                                                                                                                                            ",
"                                                                r r r r r r r r r r r                                                       ",
"                                                              . . . . . . . . . . . .                                                       ",
"                                                              C ,.;.:.:.:.:.:.:.:.;.,.V                                                     ",
"                                                - - - - ; - . a.;X@X=X@X=X=X@X=X=X=X=X<.. > ; - - : ;                                       ",
"                                                0 0 0 0 0 0 @ a.=X@X@X@X@X=X@X@X@X@X=X<.+ w 0 6 0 w 7                                       ",
"                                      6 7 0 6 7 K. X|.|.|.|.|..X@X@X@X@X'.m.). X@X@X@X.X|.|.|.|.J. Xa.$ 2                                   ",
"                                      . . . . . J.=X@X=X@X=X=X@X@X@X.X@X_.m.'.@X@X@X@X@X@X@X@X=X@X;Xi.. +                                   ",
"                                    + >.7.6.6.6.|.@X@X@X@X.X@X@X@X=X.X@X_.m.]. X@X@X@X@X@X@X@X@X@X=XK.-.2.g &                               ",
"                                  # . K.;X=X=X=X@X@X@X@X@X=X.X@X@X@X.X@X_.M.'.oX@X@X@X.X@X@X@X@X@X@X}.r.y.g X %                             ",
"                                  k f G.=X@X.X X@X@X@X@X@X@X@X@X@X@X@X@X'.m.)..X@X@X@X@X@X@X@X@X.X@X}.r.r.k d y                             ",
"                            r . k .X@X@X@X@X@X@X@X@X.X@X@X@X@X.X.X@X@X@X.X@X@X@X@X@X.X.X@X.X@X@X.X@X}.r.r.} [ c . <                         ",
"                            w . l |.=X@X@X@X@X=X@X@X.X@X.X@X@X@X@X@X=X@X@X@X@X@X@X%X%X%X%X.X@X@X@X@XL.e.r.} _ N . 1                         ",
"                        6 . ,.i.K. X@X@X=XP.O.D.D.O.H.=X@X@X@X@X@X Xh.l. X@X@X.XOXQ.#.E.#.W.oX.X@X@X}.e.e.} / N . <                         ",
"                        + . 6.;X=X@X@X X%XH.L L L L D.=X@X@X@X@X=X.Xe.t.XX;X@X$X>XF D D D G OX%XoX@X}.r.r.} [ x . O                         ",
"                        C V i.@X.X@X@X@X=XP.+.O.O.@.H.%X@X}.}.}.}.z.4.5.i.p.K.@XOXE.$.E.$.Q.oX%X@X@X}.r.e.} / B a s                         ",
"                    X f |.;X@XoX@X@X@X@X.X@X@X=X@X=X@X@X@Xy.e.r.y.u.@ & @ . C =X.X.X%X%X%X.X@X@X@X@X}.e.r...^ _ _ ( 9 %                     ",
"                    X f J.=X@X@X@X@X@X@X@X@X@X.X@X@X@X@X|.r.r.r.r.5.= 7 0 . ,.=X@X@X@X@X@X@X@X@X@X@X}.r.r.} ^ ) _ ! 1 >                     ",
"                    + f J.=X{.B.'.#X.X@X.X@X@X@X.X@X}.h.g.m j n n n     6 . >.-X@X@X@XoX@X@X@X@Xl.h.h.r.r. .^ ) _ Q 1 >                     ",
"                    . 7 J.=X].M.V.#X.X@X@X@X@X@X@X-Xv.e.q.& @ @ @ @     , . :.=X.X&X$X%X@X@X@X@Xh.e.e.t.e. .^ ) _ ! < >                     ",
"                  C <.<.|.@X,Xm._.@X.X@X@X@X@X@Xv.v.s.2.2.g e e e       r @ ,.=X+X(.^.T.%X@X@X@Xl.e.d.S.9.` ^ ) ) ! < >                     ",
"              2 . ;.;X=X@X X].M.V.:X.X@X@X@X@X@Xj.y.2.X @               . X C &XP.&.Y ~.%X@X@X@Xl.w.9.J ! ) ) ) _ ! 1 >                     ",
"              7 . :.=X@X@XoX,XN.`.@X@X@X@X.X.X Xs.q.-.@ q               k h 1.&X+X%.Y (.$X@X X Xg.e.8.^ ) ) _ ) _ ! 1 >                     ",
"              7 X C @X.X@X.X@X*X:X@X@X@X@X}.f.f.m e g               @ 2 i.@X|.%X+X=.Y Y.%X Xf.f.f.e.8.) ) ) ) ) _ ! 1 >                     ",
"              & . C ;X@X@X.X@X.X.X@X@X.X@X}.e.q.g @ @               @ 2 K.;XoX%X>X&.Y (.%X Xr.e.r.w.8.^ ) ) ) ) _ ! 1 >                     ",
"          * > -.3.s.=X@XoXOX@X@X@X@X@X.X@X}.r.r.j ; q               2 r p.@X#X@XoXY.Y.T.=X}.f.t.S.Z.X.) ) ) ) ( ) W 3 %                     ",
"          * ; 5.y.h.=X@X$X$X%XoX.X@X@X@X-XXXy.y.j & ,               . . p.=X XoX X.X$X.X=X Xf.e.X.J ^ ) ) ) ( _ { ( 5 >                     ",
"          * > 4.y.l.=X@XR.U.>X.X@X@X@X X Xz.4.4.j @                 V C K.=X#X[.[.@X@X XXXv.f.e.o.^ ) ) _ ) ' ! E E 1 >                     ",
"          * > 4.t.z.%XOXH D !.$X@X@X@Xg.t.4.: :           2 , 2 X Z @X@X@X.X<Xm.V.*X@Xv.e.r.r.e.X.^ ) ) ) ( _ c . 1                         ",
"          * ; 4.t.z.$XOXG D !.$X@X@X=Xg.r.3.@ @           @ # # . Z =X@X@X X<XM.B.*X@Xz.r.r.r.e.o.^ ) ) ) _ _ c . %                         ",
"          * ; 4.y.z..XOX$.D !.$X@X@X@X|..Xi.q 0 r w r 6 h K.K.K.J.J.oX@X].V.).*X*Xl.f.g.e.d.X. .` ) ) ) _ ( _ c . 3                         ",
"          * ; 4.t.z.&X>XG D !.XX@X@X@X.X;Xi.. . . . . . 2 @X=X@X=X@X.X@XC.M.'.oX.Xj.e.e.w.d.' ~ ) ) ) ' ) ' { N . <                         ",
"          * ; 4.r.g.v.|.W.#.U.%X@X@X@X@X=XJ.:.:.,.>.>.:.<..X@X.X@X@X@X@X,X`.[.z.L.r.e.x.9.S.' ^ ) ) ) ) ) E B z . <                         ",
"          * ; 4.j.r.e.e.n.%X.X@X@X@X.X.X@X@X=X=X=X=X=X=X=X@X@X@X@X@X@X@X@X@Xv.e.e.r.t.A.J ) ) ) ) ) ) ) ) 8 .                               ",
"          * ; 4.j.e.e.f. X@X@X@X@XoX@X+X@XoX@X@X@X@XoXoXoX@X@X@X@X@X.X@X.X@Xv.e.r.f.e.A.~ ' ) ) ) ) ) ) ' y $ ,                             ",
"          * ; 4.y.r.r.f. X@X@X$XT.%.R %.R /.@X@X@X%XH.P ]  X@X@X@X}.f.f.f.f.f.e.d.X.' ` ) ) ) _ ) ) ) ' ( y $ <                             ",
"          * ; 5.c.f.r.f..X@X+X%XT.T Y T Y *..X.X@X=XF.L U @X=X@X@X Xe.e.e.t.e.t.f. .I ' ) ) ) ) ) ) ) [ _ y $ ,                             ",
"              A A 3.e.f.l.v.v.c.P.~.~.(.~.Y..X@X@X%XP.F.F.F.F.I.v.l.r.r.9.A.S.9.A.` ^ ' ) ) ) ) ( _ W b b y                                 ",
"              @ X m y.e.e.e.e.q.f.$X%X$X&X%X@X@X@X@X=X=XoXL L 0.w.e.e.e.X.K ^ ~ ~ ) ) ) ) ) ) ) ) { E . .                                   ",
"              q & A y.r.r.r.f.e.h. X XoX X X X.X.X.X X XL.] ] 0.d.x.d.d.X.^ ` ' ' ' _ ) ) ) ) _ Q ! N > <                                   ",
"              2 & A f.r.r.r.f.r.e.r.e.r.r.e.e.r.e.r.e.r.r.r.t.A.~ ` ( _ ) ) ) ) ) _ ( ) ) ) ' _ s . ,                                       ",
"              2 @ A r.r.f.r.r.r.r.r.f.r.r.f.r.r.r.y.r.r.r.r.e.A.~ ` _ ( ) ) ) ) ) ) ) ) ) ( _ _ s o ,                                       ",
"                  n M M q.j.e.r.r.r.r.f.r.r.f.r.A.X.o.o.o.o.o...^ ' ) ) ) ) ) ) ) ) ) ) _ W z s                                             ",
"                    X < u.j.r.t.t.e.t.t.e.e.t.t.} J ~ ~ ~ ~ ~ ^ ' ) ) ) ) ' ) ) ) _ _ _ { W O .                                             ",
"                    2 g 3.4.s.8.8.x.8.8.8.8.8.8...' ` ` ' ` ` ' ) ) ) ( ) ) ( ) ( E E E E B 8 1                                             ",
"                        & . v [ / / ^ ^ / / ^ ^ ^ ) ) ' ) ) ) ) ) _ _ _ _ _ ) { ( y . % . o                                                 ",
"                        1 o N ) ( ( ( ( ( ( ) ) ) ) ) ) ) ) ) ( ) ) ( ( ) ( ! ) Q y . 5 , ,                                                 ",
"                            p a i a i a u b ' ' ) ) ) ) ) ) ) ) ' W i i i i i a i                                                           ",
"                            . . . . . $ . s { _ ' _ { _ ' _ { _ { W . . . . . . .                                                           ",
"                              9 8 8 8 t   s N N c c c c c c c c c x 5 8 8 8 8 8                                                             ",
"                                            . . . . o . . . . . . .                                                                         ",
"                                            , , < , , , , , < , , ,                                                                         ",
"                                                                                                                                            ",
"                                                                                                                                            ",
"                                                                                                                                            ",
"                                                                                                                                            ",
"                                                                                                                                            ",
"                                                                                                                                            ",
"                                                                                                                                            ",
"                                                                                                                                            ",
"                                                                                                                                            ",
"                                                                                                                                            ",
"                                                                                                                                            ",
"                                                                                                                                            "
};
