/* XPM */
static char *_9123c81ab4640f4ff91efc5b4db5321uYJx6gikgw1yDaga[] = {
/* columns rows colors chars-per-pixel */
"70 70 197 2 ",
"   c None",
".  c #000001",
"X  c #000D00",
"o  c #00000F",
"O  c #110F0B",
"+  c #001300",
"@  c #001B00",
"#  c #0D1B00",
"$  c #1B170B",
"%  c #261B12",
"&  c #002200",
"*  c #0A2100",
"=  c #112100",
"-  c #252103",
";  c #272405",
":  c #29230C",
">  c #2B2112",
",  c #332615",
"<  c #362916",
"1  c #3A2C17",
"2  c #34251A",
"3  c #3C2C19",
"4  c #3F3019",
"5  c #392722",
"6  c #3D2925",
"7  c #48371D",
"8  c #422B2A",
"9  c #452829",
"0  c #51372C",
"q  c #4A2E32",
"w  c #582A37",
"e  c #4D3034",
"r  c #4F460B",
"t  c #554022",
"y  c #5A4424",
"u  c #664D2A",
"i  c #664C2B",
"p  c #6D522D",
"a  c #785B31",
"s  c #5D3945",
"d  c #692D45",
"f  c #67394A",
"g  c #7A3452",
"h  c #734357",
"j  c #7C4860",
"k  c #896838",
"l  c #906D3C",
"z  c #937731",
"x  c #95723E",
"c  c #99753F",
"v  c #87375B",
"b  c #953B66",
"n  c #A53F72",
"m  c #9A7541",
"M  c #A37D44",
"N  c #884E69",
"B  c #8F526F",
"V  c #965775",
"C  c #A94074",
"Z  c green",
"A  c #38FD22",
"S  c #67F54E",
"D  c #7DEF60",
"F  c #BE9F39",
"G  c #BAA127",
"H  c #FF9400",
"J  c #FF931E",
"K  c #C09E3F",
"L  c #FF9324",
"P  c #FFFD00",
"I  c #FFF30A",
"U  c #FFEF35",
"Y  c #AB8347",
"T  c #B78D4D",
"R  c #BC914F",
"E  c #BE9250",
"W  c #C19D43",
"Q  c #C49B4C",
"!  c #C89F4D",
"~  c #C49653",
"^  c #C79954",
"/  c #CB9C56",
"(  c #CA975B",
")  c #C89858",
"_  c #FF8F57",
"`  c #CDA151",
"'  c #D3A359",
"]  c #CE9266",
"[  c #D09367",
"{  c #D19269",
"}  c #D68E74",
"|  c #DA8A7B",
" . c #FF926F",
".. c #FF9277",
"X. c #FF927C",
"o. c #8AEB6A",
"O. c #97E677",
"+. c #FFEA4D",
"@. c #FFE55D",
"#. c #FFDD72",
"$. c #FFE460",
"%. c #BE4684",
"&. c #A55E82",
"*. c #AA6186",
"=. c #AD6288",
"-. c #B2658C",
";. c #BB708F",
":. c #B86992",
">. c #C6498A",
",. c #D84D96",
"<. c #DC519A",
"1. c #E2549F",
"2. c #C26E99",
"3. c #C8729E",
"4. c #E97B94",
"5. c #EE739C",
"6. c #F37194",
"7. c #EA52A2",
"8. c #F954AC",
"9. c #FF4BBC",
"0. c #FF55B4",
"q. c #FE5BB3",
"w. c #FF55B8",
"e. c #FF5DBA",
"r. c #CF76A4",
"t. c #D778AA",
"y. c #DD7FB1",
"u. c #E767AA",
"i. c #F769A9",
"p. c #F370A2",
"a. c #FF63B5",
"s. c #FC6BB6",
"d. c #FD64B8",
"f. c #FE6BB8",
"g. c #FD72BB",
"h. c #F878B9",
"j. c #FF69C1",
"k. c #FE7CC2",
"l. c #FF7ED5",
"z. c #00AEFF",
"x. c #00B2FF",
"c. c #23ABFE",
"v. c #50AAFC",
"b. c #67A9F9",
"n. c #74A8F7",
"m. c #DE8682",
"M. c #E08486",
"N. c #E3818B",
"B. c #FF9287",
"V. c #FF9297",
"C. c #DF80B2",
"Z. c #FF83AE",
"A. c #FF92A6",
"S. c #E784B8",
"D. c #EA86BB",
"F. c #FD8ABD",
"G. c #FF91B8",
"H. c #DCBAAF",
"J. c #FFBAA9",
"K. c #FFA8BB",
"L. c #E5B1B6",
"P. c #AADC86",
"I. c #BAD392",
"U. c #BCD294",
"Y. c #C6CC9D",
"T. c #FFD288",
"R. c #FFC997",
"E. c #FFC39D",
"W. c #FFC1A1",
"Q. c #B79FE7",
"!. c #8AA6F3",
"~. c #96A5F1",
"^. c #A6A2ED",
"/. c #B6A0E9",
"(. c #C99ADE",
"). c #D698DD",
"_. c #FE83C4",
"`. c #F38BC3",
"'. c #FE8CC6",
"]. c #FF81CC",
"[. c #FE8DCB",
"{. c #FF93C7",
"}. c #F79CC5",
"|. c #FD9DC3",
" X c #F595CC",
".X c #FE92CC",
"XX c #FF85D2",
"oX c #FF8AD2",
"OX c #FF8CD8",
"+X c #EA96D5",
"@X c #F394D2",
"#X c #FF94D1",
"$X c #FF98D3",
"%X c #FF9AD9",
"&X c #F3A3C3",
"*X c #C69DE3",
"=X c #D29BE0",
/* pixels */
"                                                                                                                                            ",
"                                                                                                                                            ",
"                                                                                                                                            ",
"                                                                                                                                            ",
"                                                                                                                                            ",
"                                                                                                                                            ",
"                                                                                                                                            ",
"                                                      e e e e e e e e e e e                                                                 ",
"                                                      . . . . . . . . . . . .                                                               ",
"                                                    B -.&.*.*.*.*.*.*.*.&.-.V                                                               ",
"                                      : ; - - : > . :.#X#X#X#X.X#X#X.X#X.X%Xr.. - : - - - -                                                 ",
"                                      5 q 8 6 8 q + :.#X.X.X.X.X#X.X.X.X.X#Xr.@ 8 8 8 8 8 8                                                 ",
"                                  2 $ r.'.D.`.`.`.`.[..X.X.X'.Q.z.^..X.X.X.X[.`.`.`.`.`.'.S.5 6 8 5 6                                       ",
"                                  + . t.%X.X#X.X.X.X.X.X.X.X.X^.z.!..X[..X.X.X#X#X.X#X.X#XD.. . . . .                                       ",
"                              & d >.%.S.#X.X.X.X.X.X.X.X.X.X'./.z.!..X[.#X.X.X.X[..X.X.X.X`.2.2.2.3.=.+                                     ",
"                            % X d e.q._..X.X.X.X.X.X[..X.X.X{.^.x.!..X[..X.X.X[.#X.X.X.X.X.X#X#X#X%XS.. #                                   ",
"                            y r h q.q._..X[..X.X.X.X.X.X.X.X[.Q.z.^..X.X.X.X.X.X.X.X.X.X.X.X'.[..X#XC.s h                                   ",
"                        < . c ` ] q.q._..X[..X.X[..X[.[..X.X.X.X.X[..X.X.X[.[..X.X.X.X[..X.X.X.X.X.X.X.X[.h . e                             ",
"                        1 . m / ] q.0.F..X.X.X.X[.oXoXoXoX.X.X.X.X.X.X#X.X.X.X.X.X[..X[..X.X#X.X.X.X.X#X`.j . q                             ",
"                        < . m ! ] 0.0._..X.X[.{.U.O.P.O.I.}.[..X.X'.g.f.'..X.X.X.X.X#XA.X.B.B.X.G.#X.X.X'.S.t.-.. 6                         ",
"                        O . x ` ] q.q._..X{.oX}.S Z Z Z A &XXX.X%X].w.0.[.#X.X.X.X.X#XB.H H H H A.oX'..X.X#X%X2.. +                         ",
"                        a p M ! ] 0.q._..X.XoX{.I.o.P.o.P.}..XS.y.t.1.<.h._._._._..XoXA. .X.X...G.#X.X.X.X[..Xt.B V                         ",
"                    % 7 ~ / / Q [ q.0._..X.X.X.X[.oXoXoX[.[.#XV . @ & @ 7.e.q.0.e..X.X.X#X.X#X.X.X[..X.X.X.X{..X%X`.s X                     ",
"                    > 1 E / ^ Q ] q.q._..X.X.X.X.X.X.X.X.X.X#X-.. 8 5 = 1.q.q.q.q.`..X.X.X.X[..X.X.X.X.X.X.X.X.X#XD.s X                     ",
"                    > 1 R / ^ Q { q.q.f.f.g..X.X.X.X{..X.X.X$X=.. 6     v v v g b s.f._..X[..X.X.X[..X[. X^.v.(.#XD.s +                     ",
"                    > < E / ^ Q { 0.w.0.0.f..X.X.X.XoXXXOX[.#X*.. ,     @ @ @ @ & 8.0.k.$X.X.X.X.X.X.X[. Xb.x./.#XD.5 .                     ",
"                    > < E ^ ^ Q ( 4.N.i.0.g..X.X.XoXK.R.W.|.#X-.@ e       w w w d >.>.u.k.k..X.X.X.X.X[..X!.z.*X.X`.:.:.V                   ",
"                    > 1 E / ^ ^ ^ E F 4.9.g..X.X.XoXE.P +.G.OXV X .               @ X >.e.d..X.X.X.X.X[.@Xb.x./.'..X#X%X&.. 2               ",
"                    > 1 E / ^ / ^ ^ Q 5.0.s.'.'..XXXW.P @.|.OX;.f h               9 @ %.8.u.'.[.[..X.X.X.X~.c.*X{..X.X#X*.. 5               ",
"                    > 1 E / ^ ^ ^ ^ ^ 5.0.a.a.a.'.oXJ.P $.|.oX`..Xt.2 @               d w b a.a._..X.X.X.X@X+X.X[..X[..XV X 5               ",
"                    > 1 E / ^ ^ ^ ^ Q 5.9.q.0.q.'.oXW.P +.&XoX{.%XS.2 @               @ @ d 8.0._..X[..X.X[.[..X[..X.X%XV . &               ",
"                    % 3 T ^ ~ ^ ^ ^ ^ } m.N.w.a._.#XK.J.J.{..X X.Xy.e 2               9 : g q.q._..X[..X.X.X.X.X}.{..X#Xu.,.%.> *           ",
"                    > 4 ~ ' / ~ ^ ^ ^ Q F } 0.a.'.#X[.XX[.'.{.'.#Xy.. .               , & g e.e.].$X.X.X.X[.{.oXXXXX.X#Xf.e.1.: *           ",
"                    > 1 Y Y E ) ^ / ^ ^ Q | 0.a.k.].'..X.X).). X#XS.V B                 @ g <.<.h.'.'..X.X.X[.&XH.L..X#Xg.e.<.> *           ",
"                        1 . c / ~ ^ ^ ^ Q } 0.q.q.0.k..X+Xb.z.=X[..X.X.XN X 2 , 2           ; ; <.w.s..X.X.XXXY.Z D }.oXh.w.<.> *           ",
"                        % . c / / ^ ^ ^ Q | 0.q.q.q.h..X+Xv.x.=X'..X.X#XN . # # @           @ @ ,.q.s.#X.X.XXXY.Z S }.XXh.w.<.: *           ",
"                        3 . c / ~ / ^ ^ ^ ( { } i.0.s.a.g.+X+XQ.b./..X{.D.D.S.S.S.f 6 e q e 8 9 t.[.`..X.X.XXXY.Z o.}.[.h.e.<.: *           ",
"                        < . m ' ) ^ ) ^ ^ ^ W ) i.9.0.0.d.[.{.^.x.n..X[..X#X.X#X.X2 . . . . . . t.%X[..X.X.X].Y.Z S &XOXh.w.<.: *           ",
"                        < . k M Y ^ ^ ^ ^ ^ Q ) N.4.p.0.q.F.h.).~.*X.X.X.X.X[..X[.:.*.=.=.-.*.*.D.#X.X.X.X.XoXH.O.U.`.k.s.q.<.: *           ",
"                              . 7 ^ ^ ^ ^ ^ ^ ^ ^ F M.w.q.0.0.k..X.X.X.X.X.X.X.X.X#X#X#X#X#X#X#X.X.X[.[..X.X.X[.oXl.0.0.q.d.<.: *           ",
"                            , $ y ) ^ ^ ^ ^ ^ ^ ) W M.0.a.q.0.k..X[..X[..X.X.X.X.X{.{.{..X.X.X.X{..X|..X{..X.X.X.X'.a.0.0.d.<.: *           ",
"                            < $ y ~ ) ^ ^ ^ / ^ ^ ^ ( ) } i.0.a.a.a.a.a._..X.X.X'._ J A.oX.X.X.XT.U @.U @.K.XX.X.X'.a.q.q.e.<.: *           ",
"                            , $ y / ` ^ ^ ^ ^ ^ ^ ^ ) K { a.w.0.w.0.0.0.'..X.X#X.XL H V.#X.X[.[.#.P I P I K.oX|..X[.a.q.a.j.1.: *           ",
"                                y l l T / ~ ^ ^ ^ ^ ) Q ( M.4.N.M.4.q.q.g.k.Z.V.V.V.V.G.oX.X.X[.J.E.W.E.E.G.j.k.k.g.a.0.,.C C               ",
"                                  . . Y ' ^ ^ ^ ^ ^ ^ ^ ^ W W Q G } 0.0.0.9.6.H H {.#X#X.X.X.X.XoXOXXXoXXXa.8.0.0.0.0.e.b X @               ",
"                                  < > m E R / ^ ^ ^ ^ / ) ) ) ( Q } i.i.p.i.6._ _ F.'.'.[.[.[.'.'.'.{.'.'.f.0.a.q.q.q.e.C & 9               ",
"                                      , . a / ) ^ ^ ^ ~ / ^ ^ ^ ^ ^ / ~ ( W M.w.q.q.q.0.q.0.q.0.0.q.q.0.q.0.q.a.q.q.q.a.C & 2               ",
"                                      , o a / / ~ ^ ^ ^ ^ ^ ^ ^ ^ ^ ~ / ( W M.0.q.q.q.q.e.q.q.q.a.q.q.a.q.q.q.q.q.a.q.q.C @ 2               ",
"                                            a k T / ^ ^ ^ ^ ^ ^ ^ ^ ^ ^ ) Q [ } | | | | } m.q.a.q.q.a.q.q.q.q.0.d.8.n n v                   ",
"                                            . O T ' / / / ^ ^ ^ / ^ ^ ^ ^ / ! E W W W W F ] w.w.0.0.w.w.0.w.w.q.d.7.< X                     ",
"                                            1 7 M Y Y Y Y ~ ^ ~ ~ ^ ~ ^ ^ ^ ) ( ( ) ( ( ( [ 5.5.5.5.5.5.p.5.5.u.<.,.d 2                     ",
"                                                o . % . y ~ ' ^ / / / / ^ ^ ^ ^ ^ ^ ) ^ ^ Q Q Q ! ! Q Q ! ! ` z . &                         ",
"                                                , , 4 . y R ^ E ~ ^ ~ ~ ^ ^ ~ ^ ^ ^ ^ ^ ^ ^ ^ ^ ~ ~ ~ ~ ~ ~ ^ m o 1                         ",
"                                                          u p u u u u u T ) ^ ^ ^ ^ ^ ^ ^ ^ ( ) l t p u p u p u                             ",
"                                                          . . . . . . . T ' / ' / ) / ' / ^ / ' a . $ . . . . .                             ",
"                                                            7 7 7 7 7 7 x c c c c c c m c m m m a   0 7 7 7 7                               ",
"                                                                        . . . . . . . o . . . .                                             ",
"                                                                        , , , < , , , , , < , ,                                             ",
"                                                                                                                                            ",
"                                                                                                                                            ",
"                                                                                                                                            ",
"                                                                                                                                            ",
"                                                                                                                                            ",
"                                                                                                                                            ",
"                                                                                                                                            ",
"                                                                                                                                            ",
"                                                                                                                                            ",
"                                                                                                                                            ",
"                                                                                                                                            ",
"                                                                                                                                            "
};
