/* XPM */
static char *d175d6a63f09462bb50e2da2290d5bb7EdEScyzv4vsaTUBO[] = {
/* columns rows colors chars-per-pixel */
"70 70 229 2 ",
"   c None",
".  c black",
"X  c #000C03",
"o  c #15120F",
"O  c #3B1315",
"+  c #1A1D21",
"@  c #24252C",
"#  c #333638",
"$  c #6A080C",
"%  c #46291F",
"&  c #692E0C",
"*  c #453328",
"=  c #4A462D",
"-  c #71512E",
";  c #3E3E46",
":  c #3F4142",
">  c #37567A",
",  c #43444A",
"<  c #4D4C5D",
"1  c #504F54",
"2  c #565559",
"3  c #444760",
"4  c #4D4B61",
"5  c #504F64",
"6  c #4B546B",
"7  c #535364",
"8  c #58566A",
"9  c #5C5A6B",
"0  c #5A5D71",
"q  c #625C69",
"w  c #605E72",
"e  c #51617B",
"r  c #61606E",
"t  c #646274",
"y  c #686676",
"u  c #686778",
"i  c #6B697B",
"p  c #706F7B",
"a  c #76767C",
"s  c #9A1A16",
"d  c #B50B15",
"f  c #BA3C2F",
"g  c #CE0D0F",
"h  c #FE151B",
"j  c #E7221F",
"k  c #AE7A0E",
"l  c #8A5F24",
"z  c #8B6937",
"x  c #B46F2A",
"c  c #9B6E4D",
"v  c #B48800",
"b  c #B59127",
"n  c #B88838",
"m  c #BD9933",
"M  c #CE9E01",
"N  c #C8A300",
"B  c #D7AB03",
"V  c #D4AF0E",
"C  c #DABA05",
"Z  c #E1AC00",
"A  c #E4B401",
"S  c #E8B707",
"D  c #ECBA01",
"F  c #F3BE00",
"G  c #F0BF0A",
"H  c #E5B617",
"J  c #EBBB1C",
"K  c #C29A26",
"L  c #C78C38",
"P  c #C49737",
"I  c #CBA527",
"U  c #D3AB23",
"Y  c #D3AA2A",
"T  c #DCB225",
"R  c #D8B725",
"E  c #CBA13A",
"W  c #D7AB33",
"Q  c #DEB434",
"!  c #DAB53B",
"~  c #E6B925",
"^  c #E6B927",
"/  c #E5B82A",
"(  c #E3B935",
")  c #F6C100",
"_  c #F4C707",
"`  c #FCC400",
"'  c #FFCA01",
"]  c #FFCB0D",
"[  c #FDD604",
"{  c #F0D60C",
"}  c #E9CA11",
"|  c #F8C517",
" . c #FFCB12",
".. c #FFCB1D",
"X. c #E5D21D",
"o. c #F3E00C",
"O. c #D3C13E",
"+. c #F4C326",
"@. c #FBC726",
"#. c #FCC926",
"$. c #F3C22B",
"%. c #FAC72A",
"&. c #FECA2C",
"*. c #FAD12B",
"=. c #EAC738",
"-. c #F0CB30",
";. c #F7C834",
":. c #FDCA32",
">. c #BC8C4A",
",. c #B88A54",
"<. c #BF935C",
"1. c #B5A058",
"2. c #96947E",
"3. c #AD9372",
"4. c #BAA866",
"5. c #BBA672",
"6. c #CD9445",
"7. c #D39A48",
"8. c #CA9553",
"9. c #CD9855",
"0. c #D2AE4C",
"q. c #D1B248",
"w. c #D7B557",
"e. c #E0B848",
"r. c #D6B86B",
"t. c #CBB072",
"y. c #CAB37B",
"u. c #DCC64F",
"i. c #E8C64F",
"p. c #DEC66C",
"a. c #EAE66B",
"s. c #385383",
"d. c #3A6A95",
"f. c #087BBD",
"g. c #2A6CA2",
"h. c #3975AA",
"j. c #2B78B4",
"k. c #3479B4",
"l. c #357BB5",
"z. c #3B7CB4",
"x. c #435F87",
"c. c #486F98",
"v. c #4A739C",
"b. c #7E7D85",
"n. c #4575A4",
"m. c #4976A2",
"M. c #4B79A6",
"N. c #4B7DAC",
"B. c #577EA6",
"V. c #487FB2",
"C. c #007BC2",
"Z. c #1781BD",
"A. c #3E80BB",
"S. c #398ABA",
"D. c #5A82AB",
"F. c #4D82B4",
"G. c #4383BD",
"H. c #4B86BC",
"J. c #4B88BE",
"K. c #5087BC",
"L. c #5288BD",
"P. c #588CBF",
"I. c #6589AC",
"U. c #7690AD",
"Y. c #7993B1",
"T. c #038CD1",
"R. c #3883C1",
"E. c #2F92CA",
"W. c #4889C0",
"Q. c #4E89C1",
"!. c #538BC1",
"~. c #598EC2",
"^. c #5492C7",
"/. c #40A6D8",
"(. c #42CDD9",
"). c #7ACAD1",
"_. c #57C5E3",
"`. c #84868A",
"'. c #8D8E95",
"]. c #96989B",
"[. c #B19E88",
"{. c #B7AC99",
"}. c #869BB5",
"|. c #93A6B7",
" X c #B3B0A9",
".X c #A5ACB1",
"XX c #B9B9B8",
"oX c #CBB684",
"OX c #D2BF8A",
"+X c #D1C98C",
"@X c #E6E698",
"#X c #CFC4AB",
"$X c #D6C9AB",
"%X c #DBDBA5",
"&X c #CEC7B7",
"*X c #D4CAB6",
"=X c #D8D6B9",
"-X c #E5C7BC",
";X c #98B3C7",
":X c #A1AFC0",
">X c #ABB5C2",
",X c #BDC3CC",
"<X c #BAE8ED",
"1X c #C6C7C7",
"2X c #CDCDCC",
"3X c #D5D6CA",
"4X c #CED2D0",
"5X c gray83",
"6X c #DBDAD4",
"7X c #D4D7DA",
"8X c gainsboro",
"9X c #E1DDD4",
"0X c #E6E8C8",
"qX c #F8FAC9",
"wX c #E6E7D7",
"eX c #F3F9D8",
"rX c #DDE1E3",
"tX c #E3E4E4",
"yX c #E6E7E8",
"uX c #ECEBEB",
"iX c #EFF1ED",
"pX c #F3F2ED",
"aX c #FEFEEA",
"sX c #EAEDF3",
"dX c #EDF4F8",
"fX c #F4F4F3",
"gX c #F3F6FC",
"hX c #F6FBF9",
"jX c white",
/* pixels */
"                                                                                                      -.w.U e.w.                            ",
"                                                                                                  w.D `  .#...` H 0.                        ",
"                                                                                            5.A Q ` &.:.%.@.%.:.#.A                         ",
"                                                                                        qXaXrXe. .:.@.@.#.@.@.@.%.] 0.                      ",
"                                                                                      eXaXuXgX*X` :.%.#.@.@.#.@.#.:.F +X                    ",
"                                                                                  +X  hXiXfXfX2XB ` #.@.@.@.@.@.#.%.' y.                    ",
"                                                                          K k   p.D w.wXhXyX2X5X6X#XJ #.%.@.@.@.@.%.@.b                     ",
"                                                                          L 0.x U *.' r.iX2XuXfXfXgX&XF %.@.%.@.@.%.#.~                     ",
"                                    _                                     n L 9.n +.:.' t.7XfXuXuXpXsXw.] %.@.@.@.@.#.+.                    ",
"                                  ` `                                       n 9.8.m &.#.( tXfXfXfXfXfXOX` :.@.#.@.%.#.Y                     ",
"                            } A Z [ F                                       ,.6.9.>.K #.( 8XfXiXXXyXfXr.' %.@.@.#.%.' q.                    ",
"                            *.A ( ' B                                         ,.L 9.8.P ' #XgXpXtXfX5XJ %.%.@.@.@.:.)                       ",
"                              N #.%.A B G D                                     t.n 7.,.Y J &XsXsX5Xw. .%.#.@.%.;.' !                       ",
"                              | %.@.#.S D D                                       5.<.L ,.T _ w.w.J ] &.#.@.%.:.` R                         ",
"                      D ' _ ) #.@.@.:.G                                           2. X3.6.>.+. .' #.$./ ~ :.] D =.                          ",
"                      { ' [ %.#.%.#.:.F                                           & # rX[.x Q *.&./ U / U F T                               ",
"                          [ ' %.#.@.&.' i.                                        - . . .XoXM %.%.~ %.} N i.                                ",
"                            D ..%.@.#.#.H                                       2.o + . # 2 K #.@.~ U b                                     ",
"                              ' &.#.@.&.` =.                                -Xg g O . o . . P #./ E C                                       ",
"                              D :.%.#.@.&.F                             *Xn 3.c d j $ X . * W ~ ~ A A                                       ",
"                              { ' %.#.@.%.&.D                     wX2X2XXX,.l . $ j s X . z -._ K (                                         ",
"                                ) :.@.@.#.@.&.) (         pXwXuX5X4XjXtXsXc L = d h $ . - 6.' q.                                            ",
"                                H %.@.%.@.@.@.:.` F 1.3XjXjXjXfX1X7XjXXXe.v 3.n x f % - m ../                                               ",
"                                  ` :.@.@.@.@.@.;.` y.jXjXjXjXjXjX X7X4.t.rX7X2X3.k >.! &.` O.                      D A                     ",
"                                  J %.@.#.#.@.%.#.U tXjXjXjXjXrX5XfXjXiXjXjX6XjXgX{.A [ :.~                         ' X.                    ",
"                                    ) :.#.%.@.&.' y.hXjXjXjX5XtXjXjXjXjXjXfX8XjXjXjX6Xw.` w.                      C '                       ",
"                                    =.' ;.@.@.:.) $XjXjXfX2XfXjXjXjXjXhXjX8XyXjXhXjXjXdXoXt.                      S ..B X.                  ",
"                                      (  .%.@.:.D 9XjXfX2XjXjXhXjXjXjXjXjXhX5XiXjXjXhXjXjX=X                    C N C #.` R   u.a.          ",
"                                        H #.:. .A uXjX2XjXjXjXjXjXjXjXjXjXjXjX5X8XjXjXjXjX3X0X                A ] &.T I &.J A [ F @X        ",
"                                        +XJ D 0.y.7X1X8XjXjXjXjXjXjXjXjXjXjXjXjXyX5XuX8X5X5X0XeX              ) Q +.T I *.~ N ! ! @X        ",
"                                        pX X&XdXjXjXhXjXjXjXjXjXjXjXjXjXjXjXjXjXjXfXXXuXjXjXjXaX              F $.Y ~ T $.T V               ",
"                                        5XfXjXjXjXjXjXjXjXjXjXjXjXjXjXjXjXjXjXjXhX5XjXjXjXjXjX#Xw.        V V ~ *.#.#.$.Y +.$.              ",
"                                      <XhXjXjXjXjXjXjXjXjXjXjXjXjXjXjXjXjXjXjXjX8XuXjXhXjXjXuX( ' F F F ) ' #.#.@.@.@.#.*.`                 ",
"                                _.    gXjXhXjXjXjXjXjXjXjXjXjXjXjXjXjXjXjXjXjXjX8XjXjXjXjXjX$X) :.:.&.&.:.%.@.@.#.@.%.%.S                   ",
"                      Z.z.z.A.z.z.h.D.;XiXjXjXjXjXjXjXjXjXjXjXjXjXjXjXjXjXjXjXfX8XjXjXjXjXgXr.' %.%.@.%.@.#.@.@.@.@.%.D                     ",
"                  C.E.!.!.!.!.P.~.!.Q.k.D.1XjXjXjXjXjXjXjXjXjXjXjXjXjXjXjXjXjXhX8XjXjXjXjXuX~ #.%.@.#.#.#.@.@.@.@.@.:.D                     ",
"                f.!.P.K.K.K.K.!.K.K.K.~.Q.j..XjXjXjXjXjXjXjXjXjXjXjXjXjXjXjXjXjX5XjXjXjXjX9XD &.%.@.@.@.#.@.@.#.%.:.F                       ",
"              f.~.K.J.K.K.K.K.K.K.!.K.K.K.~.j.|.jXjXjXjXjXjXjXjXjXjXjXjXjXjXjXjXtXtXjXhXjX=XF :.#.#.#.@.%.#.@.&.:.)                         ",
"            T.Q.!.K.!.K.K.!.K.K.!.K.K.K.!.K.~.j.>XjXjXjXjXjXjXjXjXjXjXjXjXjXjXjXjX5XfXjXjX$XF :.%.%.%.%.@.:.:.' D                           ",
"            j.~.Q.!.K.K.K.K.!.K.K.K.!.K.K.K.K.~.h.7XjXjXjXjXjXjXjXjXjXjXjXjXjXjXjXjX2XfXjX$XF %.%.#.%.#. .' F o.                            ",
"            W.K.K.K.!.K.K.!.K.L.!.L.L.L.J.L.K.K.H.I.fXjXjXjXjXjXjXjXjXjXjXjXjXjXjXjXjX4XiX=X0.i.D D D H +.X.                                ",
"          T.!.K.!.K.K.K.K.K.K.L.K.L.L.L.L.L.K.K.P.k.>XjXjXjXjXjXjXjXjXjXjXjXjXjXjXjXjXjX7X X0X%X                                            ",
"          Z.!.K.K.K.!.K.!.!.!.K.L.L.L.L.K.J.K.K.K.!.N.uXjXjXjXjXjXjXjXjXjXjXjXjXjXjXjXjXuX                                                  ",
"          j.~.K.K.K.K.K.K.K.K.L.L.L.L.L.K.K.!.K.!.!.k.>XjXjXjXjXjXjXjXjXjXjXjXjXjXjXjXjXrX                                                  ",
"          k.~.L.K.L.L.K.K.!.K.K.K.L.!.K.K.K.K.K.K.K.H.I.fXjXjXjXjXjXjXjXjXjXjXjXjXjXjXjXrX                                                  ",
"          k.!.J.!.K.K.!.K.K.!.F.F.K.K.K.K.!.K.!.K.K.~.k.4XjXjXjXjXjXjXjXjXjXjXjXjXjXjXjXXX].`.                                              ",
"          V.!.K.K.L.L.K.K.K.K.F.N.^.K.K.K.!.K.K.K.K.L.G.}.jXjXhXjXjXjXjXjXjXjXjXjXjXjXjXa + , @                                             ",
"          V.!.K.L.K.L.L.K.L.!.j.g.R.!.K.K.K.K.!.K.!.K.!.m.,XjXjXjXjXjXjXjXjXjXjXjXjXjXfX2 1 1 ,                                             ",
"          S.!.L.L.K.K.K.L.L.K.W.S.E.G.P.K.K.L.L.L.L.L.K.K.k.}.7XjXjXjXjXjXjXjXhXjXjXjX2X# 1 7 7                                             ",
"          /.G.L.K.!.K.K.H.K.!.h.S.  D.H.!.K.L.L.L.L.K.K.K.P.G.h.Y.,XyXjXjXjXjXjXjXjXjX`.# 1 u 4                                             ",
"            z.L.K.K.!.!.K.F.n.g.j.    n.Q.L.K.K.L.L.J.L.L.K.L.~.G.k.N.Y.:X1X7XtXuXfX4X# 1 y t 6                                             ",
"            N.!.H.L.F.N.M.M.H.!.z.W.    m.W.P.K.L.L.L.L.L.L.K.L.L.P.L.J.k.k.h.V.v., : 7 t y 8                                               ",
"            I.n.m.m.M.F.K.L.!.H.> 7       B.A.P.K.L.K.L.L.L.L.K.H.K.L.L.!.L.^.F.3 1 w u w u 3                                               ",
"              k.^.!.L.!.Q.L.m.8 y 7 F.      U.k.L.L.K.K.K.L.K.K.J.L.L.L.!.K.m.9 w u u w i 7                                                 ",
"              D.N.F.F.N.c.e q w i 5             B.V.K.!.K.!.K.!.!.!.L.F.M.x.7 9 t t w i 8 s.                                                ",
"                < 9 9 9 q r y t y 8             ^.h.M.M.N.N.F.N.N.M.m.N.m.N.J.m.0 q u 7 x.                                                  ",
"                e u t u t t t u , ;               k.P.F.F.F.M.F.F.F.L.!.F.F.!.~.Q.v.7 L.                                                    ",
"                r t t t t t t 0 i                 V.!.K.!.!.L.!.!.Q.L.L.F.c.N.N.K.^.h.                                                      ",
"                a w t t t t i 4                   N.Q.K.K.K.K.L.K.L.K.L.K.v.F.N.v.F.R.                                                      ",
"                `.8 t t t t u 7                   W.J.K.K.K.L.L.L.L.L.L.K.n.L.!.K.B.g.                                                      ",
"                '.8 u t t t w p                     k.P.!.K.L.L.L.L.L.K.L.V.N.K.L.^.d.                                                      ",
"                  4 u t t t 9 b.                    F.!.K.K.L.L.L.L.L.L.L.K.N.K.L.!.V.                                                      ",
"                  y t w t u < |.                    D.Q.K.K.J.L.L.L.L.L.L.L.L.L.L.G.                                                        ",
"                  '.8 y t t w                         k.!.K.K.L.L.L.L.L.L.L.L.L.K.z.                                                        ",
"                    7 w i 4 ].                        F.K.K.!.K.!.K.L.K.K.K.!.K.!.F.                                                        ",
"                      r 5 b.                          _.k.~.K.K.K.K.K.L.L.K.J.P.k.                                                          ",
"                                                        Y.G.P.K.L.K.K.K.L.L.L.J.G.                                                          ",
"                                                          B.G.~.L.L.K.L.~.!.z.B.                                                            ",
"                                                            U.j.G.!.!.G.z.N./.                                                              ",
"                                                              ).Y.M.M.Y.(.                                                                  "
};
