/* XPM */
static char *c8b0c3c89f9446bfcc4d8af6d123261fGmWBW0F6Ycdd0Hzf[] = {
/* columns rows colors chars-per-pixel */
"70 70 232 2 ",
"   c None",
".  c #000000",
"X  c #000C03",
"o  c #15120F",
"O  c #1A1D21",
"+  c #333638",
"@  c #24252C",
"#  c #3B1315",
"$  c #6A080C",
"%  c #46291F",
"&  c #692E0C",
"*  c #453328",
"=  c #71512E",
"-  c #4A462D",
";  c #3E3E46",
":  c #3F4142",
">  c #37567A",
",  c #43444A",
"<  c #4D4C5D",
"1  c #464958",
"2  c #565559",
"3  c #504F54",
"4  c #4D4B61",
"5  c #444760",
"6  c #504F64",
"7  c #535364",
"8  c #5C5A6B",
"9  c #58566A",
"0  c #5A5D71",
"q  c #4B546B",
"w  c #605E72",
"e  c #625C69",
"r  c #51617B",
"t  c #61606E",
"y  c #646274",
"u  c #686778",
"i  c #6B697B",
"p  c #686676",
"a  c #76767C",
"s  c #706F7B",
"d  c #9A1A16",
"f  c #B50B15",
"g  c #BA3C2F",
"h  c #CE0D0F",
"j  c #FE151B",
"k  c #E7221F",
"l  c #AE7A0E",
"z  c #8A5F24",
"x  c #B46F2A",
"c  c #8B6937",
"v  c #9B6E4D",
"b  c #A87F44",
"n  c #B48800",
"m  c #B88838",
"M  c #BD9933",
"N  c #B59127",
"B  c #CE9E01",
"V  c #C8A300",
"C  c #D7AB03",
"Z  c #DABA05",
"A  c #D4AF0E",
"S  c #E4B401",
"D  c #ECBA01",
"F  c #E8B707",
"G  c #F3BE00",
"H  c #F0BF0A",
"J  c #EBBB1C",
"K  c #E5B617",
"L  c #E1AC00",
"P  c #C78C38",
"I  c #C49737",
"U  c #C29A26",
"Y  c #CBA527",
"T  c #D3AB23",
"R  c #D3AA2A",
"E  c #DCB225",
"W  c #D8B725",
"Q  c #CBA13A",
"!  c #DEB434",
"~  c #DAB53B",
"^  c #D7AB33",
"/  c #E6B925",
"(  c #E5B82A",
")  c #E6B927",
"_  c #E3B935",
"`  c #F6C100",
"'  c #FCC400",
"]  c #FFCA01",
"[  c #FFCB0D",
"{  c #F4C707",
"}  c #FDD604",
"|  c #E9CA11",
" . c #FFCB12",
".. c #FFCB1D",
"X. c #F8C517",
"o. c #E5D21D",
"O. c #F0D60C",
"+. c #F3E00C",
"@. c #D3C13E",
"#. c #F4C326",
"$. c #FBC726",
"%. c #FCC926",
"&. c #F3C22B",
"*. c #FAC72A",
"=. c #FECA2C",
"-. c #FAD12B",
";. c #EAC738",
":. c #FDCA32",
">. c #F7C834",
",. c #F0CB30",
"<. c #BC8C4A",
"1. c #B88A54",
"2. c #BF935C",
"3. c #B5A058",
"4. c #96947E",
"5. c #AD9372",
"6. c #BAA866",
"7. c #BBA672",
"8. c #CD9445",
"9. c #D39A48",
"0. c #CD9855",
"q. c #CA9553",
"w. c #D2AE4C",
"e. c #D7B557",
"r. c #D1B248",
"t. c #E0B848",
"y. c #D6B86B",
"u. c #CAB37B",
"i. c #CBB072",
"p. c #DCC64F",
"a. c #E8C64F",
"s. c #DEC66C",
"d. c #EAE66B",
"f. c #385383",
"g. c #3A6A95",
"h. c #087BBD",
"j. c #2A6CA2",
"k. c #3975AA",
"l. c #2B78B4",
"z. c #3479B4",
"x. c #3B7CB4",
"c. c #357BB5",
"v. c #2E73AC",
"b. c #435F87",
"n. c #486F98",
"m. c #4A739C",
"M. c #7E7D85",
"N. c #4976A2",
"B. c #4B79A6",
"V. c #4B7DAC",
"C. c #4575A4",
"Z. c #577EA6",
"A. c #487FB2",
"S. c #007BC2",
"D. c #1781BD",
"F. c #3E80BB",
"G. c #398ABA",
"H. c #5A82AB",
"J. c #4D82B4",
"K. c #4383BD",
"L. c #4B86BC",
"P. c #4B88BE",
"I. c #5087BC",
"U. c #5288BD",
"Y. c #588CBF",
"T. c #6589AC",
"R. c #7993B1",
"E. c #7690AD",
"W. c #038CD1",
"Q. c #3883C1",
"!. c #2F92CA",
"~. c #4E89C1",
"^. c #4889C0",
"/. c #538BC1",
"(. c #598EC2",
"). c #5492C7",
"_. c #40A6D8",
"`. c #42CDD9",
"'. c #57C5E3",
"]. c #7ACAD1",
"[. c #84868A",
"{. c #96989B",
"}. c #8D8E95",
"|. c #B19E88",
" X c #B7AC99",
".X c #869BB5",
"XX c #93A6B7",
"oX c #B3B0A9",
"OX c #B9B9B8",
"+X c #A5ACB1",
"@X c #CBB684",
"#X c #D2BF8A",
"$X c #D1C98C",
"%X c #E6E698",
"&X c #CFC4AB",
"*X c #D6C9AB",
"=X c #CEC7B7",
"-X c #D4CAB6",
";X c #D8D6B9",
":X c #DBDBA5",
">X c #E5C7BC",
",X c #ABB5C2",
"<X c #A1AFC0",
"1X c #98B3C7",
"2X c #BDC3CC",
"3X c #BAE8ED",
"4X c #CDCDCC",
"5X c #C6C7C7",
"6X c #D5D6CA",
"7X c #D4D4D4",
"8X c #DBDAD4",
"9X c #DCDCDC",
"0X c #D4D7DA",
"qX c #CED2D0",
"wX c #E1DDD4",
"eX c #E6E8C8",
"rX c #F8FAC9",
"tX c #E6E7D7",
"yX c #F3F9D8",
"uX c #DDE1E3",
"iX c #E3E4E4",
"pX c #ECEBEB",
"aX c #E6E7E8",
"sX c #F3F2ED",
"dX c #FEFEEA",
"fX c #EAEDF3",
"gX c #EDF4F8",
"hX c #F4F4F3",
"jX c #F3F6FC",
"kX c #FFFFFF",
"lX c #F6FBF9",
"zX c #EFF1ED",
/* pixels */
"                            e.t.T e.,.                                                                                                      ",
"                        w.K ' ..%. .' D e.                                                                                                  ",
"                        S %.:.*.$.*.:.=.' ! S 7.                                                                                            ",
"                      w.[ *.$.$.$.%.$.$.:. .t.uXdXrX                                                                                        ",
"                    $XG :.%.$.%.$.$.%.*.:.' -XjXpXdXyX                                                                                      ",
"                    u.] *.%.$.$.$.$.$.%.' C 4XhXhXzXlX  $X                                                                                  ",
"                    N $.*.$.$.$.$.*.%.J &X8X7X4XaXlXtXe.D s.  l U                                                                           ",
"                    / %.*.$.$.*.$.*.G =XjXhXhXpX4XzXy.] -.T x w.P                                                                           ",
"                    #.%.$.$.$.$.*.[ e.fXsXpXpXhX0Xi.] :.#.m 0.P m                                     {                                     ",
"                    R %.*.$.%.$.:.' #XhXhXhXhXhXiX_ %.=.M q.0.m                                       ' '                                   ",
"                    r.] *.%.$.$.*.] y.hXaXOXzXhX9X_ %.U <.0.8.1.                                      G } L S |                             ",
"                      ` :.$.$.$.*.*.J 7XhXiXsXjX&X] I q.0.P 1.                                        C ] _ S -.                            ",
"                      ~ ] >.*.$.%.*. .e.7XfXfX=XJ R 1.9.m i.                                    D H C S *.%.V                               ",
"                        W ' :.*.$.%.=.[ J e.e.{ E 1.P 2.7.                                      D D F %.$.*.X.                              ",
"                          ;.D [ :./ ( &.%.]  .#.<.8.5.oX4.                                          H :.$.$.%.` { ] D                       ",
"                              E G T ( T ( =.-.! x |.uX+ &                                           G :.%.*.%.*.} ] O.                      ",
"                                a.V | *./ *.*.B @X+X. . =                                         a.] =.$.%.*.] }                           ",
"                                    N T ) $.%.U 2 + . O o 4.                                      K %.%.$.*...D                             ",
"                                      Z Q ) %.I . . o . # h h >X                                ;.' =.$.%.=.]                               ",
"                                      S S / ) ^ * . X $ k f v 5.m -X                            G =.$.%.*.:.D                               ",
"                                        _ U { ,.c . X d k $ . z 1.OX4X4XtX                    D =.*.$.%.*.] O.                              ",
"                                            r.] 8.= . $ j f - P v fXiXkXqX7XpXtXsX        _ ` =.$.%.$.$.:.`                                 ",
"                                              ( ..M = % g x m 5.n t.OXkX0X5XhXkXkXkX6X3.G ' :.$.$.$.*.$.*.K                                 ",
"                    S D                       @.' =.~ <.l 5.4X0XuXi.6.0XoXkXkXkXkXkXkXu.' >.$.$.$.$.$.:.'                                   ",
"                    o.]                         / :.} S  XjXkX8XkXkXzXkXhX7XuXkXkXkXkXiXT %.*.$.%.%.$.*.J                                   ",
"                      ] Z                       e.' e.8XkXkXkX9XhXkXkXkXkXkXiX7XkXkXkXlXu.] =.$.*.%.:.`                                     ",
"                  o.C ..F                       i.@XgXkXkXlXkXaX9XkXlXkXkXkXkXhX4XhXkXkX*X` :.$.$.>.] ;.                                    ",
"          d.p.  W ' %.Z V Z                     ;XkXkXlXkXkXzX7XlXkXkXkXkXkXlXkXkX4XhXkXwXD :.$.*. ._                                       ",
"        %XG } S J =.Y E =.[ S                 eX6XkXkXkXkX9X7XkXkXkXkXkXkXkXkXkXkXkX4XkXpXS  .:.%.K                                         ",
"        %X~ ~ V / -.Y E #.! `               yXeX7X7X9XpX7XaXkXkXkXkXkXkXkXkXkXkXkXkX9X5X0Xu.w.D J $X                                        ",
"              A E &.E ) R &.G               dXkXkXkXpXOXhXkXkXkXkXkXkXkXkXkXkXkXkXkXkXlXkXkXgX=XoXsX                                        ",
"              &.#.R &.%.%.-./ A A         e.&XkXkXkXkXkX7XlXkXkXkXkXkXkXkXkXkXkXkXkXkXkXkXkXkXkXhX7X                                        ",
"                ' -.%.$.$.$.%.%.] ` G G G ] _ pXkXkXlXkXpX9XkXkXkXkXkXkXkXkXkXkXkXkXkXkXkXkXkXkXkXlX3X                                      ",
"                  F *.*.$.%.$.$.*.:.=.=.:.:.` *XkXkXkXkXkX9XkXkXkXkXkXkXkXkXkXkXkXkXkXkXkXkXkXkXlXkXjX    '.                                ",
"                    D *.$.$.$.$.%.$.*.$.*.*.] y.jXkXkXkXkX9XhXkXkXkXkXkXkXkXkXkXkXkXkXkXkXkXkXkXkXzX1XH.k.x.x.F.x.x.D.                      ",
"                    D :.$.$.$.$.$.%.%.%.$.*.%.) pXkXkXkXkX9XlXkXkXkXkXkXkXkXkXkXkXkXkXkXkXkXkXkX5XH.c.~./.Y.Y././././.!.S.                  ",
"                      G :.*.%.$.$.%.$.$.$.*.=.D wXkXkXkXkX7XkXkXkXkXkXkXkXkXkXkXkXkXkXkXkXkXkX+Xl.~.(.I.I.I./.I.I.I.I.Y./.h.                ",
"                        ` :.=.$.%.*.$.%.%.%.:.G ;XkXlXkXiXiXkXkXkXkXkXkXkXkXkXkXkXkXkXkXkXkXXXl.(.I.I.I./.I.I.I.I.I.I.P.I.(.h.              ",
"                          D ] :.:.$.*.*.*.*.:.G *XkXkXhX7XkXkXkXkXkXkXkXkXkXkXkXkXkXkXkXkX,Xl.(.I./.I.I.I./.I.I./.I.I./.I./.~.W.            ",
"                            +.G ]  .%.*.%.*.*.G *XkXhX4XkXkXkXkXkXkXkXkXkXkXkXkXkXkXkXkX0Xk.(.I.I.I.I./.I.I.I./.I.I.I.I./.~.(.l.            ",
"                                o.#.K D D D a.w.;XzXqXkXkXkXkXkXkXkXkXkXkXkXkXkXkXkXkXhXT.L.I.I.U.P.U.U.U./.U.I./.I.I./.I.I.I.^.            ",
"                                            :XeXoX0XkXkXkXkXkXkXkXkXkXkXkXkXkXkXkXkXkX,Xz.Y.I.I.U.U.U.U.U.I.U.I.I.I.I.I.I./.I./.W.          ",
"                                                  pXkXkXkXkXkXkXkXkXkXkXkXkXkXkXkXkXpXV./.I.I.I.P.I.U.U.U.U.I./././.I./.I.I.I./.D.          ",
"                                                  uXkXkXkXkXkXkXkXkXkXkXkXkXkXkXkXkX,Xz././.I./.I.I.U.U.U.U.U.I.I.I.I.I.I.I.I.(.l.          ",
"                                                  uXkXkXkXkXkXkXkXkXkXkXkXkXkXkXkXhXT.L.I.I.I.I.I.I.I./.U.I.I.I./.I.I.U.U.I.I.(.c.          ",
"                                              [.{.OXkXkXkXkXkXkXkXkXkXkXkXkXkXkXkXqXz.(.I.I./.I./.I.I.I.I.J.J./.I.I./.I.I./.I./.z.          ",
"                                            @ , O a kXkXkXkXkXkXkXkXkXkXkXkXlXkXkX.XK.U.I.I.I.I./.I.I.I.).V.J.I.I.I.I.U.U.I.I./.A.          ",
"                                            , 3 3 2 hXkXkXkXkXkXkXkXkXkXkXkXkXkX2XN./.I./.I./.I.I.I.I./.Q.j.l./.U.I.U.U.I.U.I./.A.          ",
"                                            7 7 3 + 4XkXkXkXlXkXkXkXkXkXkXkX0X.Xz.I.I.U.U.U.U.U.I.I.Y.K.!.G.^.I.U.U.I.I.I.I.I.~.G.          ",
"                                            4 u 3 + [.kXkXkXkXkXkXkXkXaX2XR.k.K.Y.I.I.I.U.U.U.U.I./.L.H.  G.k./.I.L.I.I./.I.Y.K._.          ",
"                                            q y p 3 + qXhXpXiX0X5X<XR.V.z.K.(.U.I.U.U.P.U.U.I.I.U.~.C.    l.j.C.J.I././.I.I.U.x.            ",
"                                              9 p y 7 : , m.A.k.z.c.P.I.Y.U.U.I.U.U.U.U.U.U.I.Y.^.N.    ^.x./.L.B.B.V.J.U.L./.V.            ",
"                                              5 u w u w 3 5 J.).U./.U.U.I.I.I.U.U.U.U.I.U.I.Y.F.Z.      7 > L./.U.I.J.B.N.N.C.T.            ",
"                                                7 i w u u w 8 N.I./.U.U.I.P.I.I.U.I.I.I.U.U.z.E.      J.7 p 9 N.U.~./.U./.).z.              ",
"                                                f.9 i w y y 8 7 b.B.J.U./././.I./.I./.I.A.Z.            6 i w e r n.V.J.J.V.H.              ",
"                                                  b.7 u e 0 N.P.V.N.V.N.B.V.V.J.V.V.B.B.k.).            9 p y p t e 8 8 8 <                 ",
"                                                    U.7 m.~.(./.J.J./.U.J.J.J.B.J.J.J.Y.c.              ; , u y y y u y u r                 ",
"                                                      k.).I.V.V.n.J.U.U.~././.U././.I./.A.                i 0 y y y y y y t                 ",
"                                                      Q.J.m.V.J.m.I.U.I.U.I.U.I.I.I.I.~.V.                  4 i y y y y w a                 ",
"                                                      j.Z.I./.U.C.I.U.U.U.U.U.U.I.I.I.P.^.                  7 u y y y y 9 [.                ",
"                                                      g.).U.I.V.A.U.I.U.U.U.U.U.I./.Y.z.                    s w y y y u 9 }.                ",
"                                                      A./.U.I.V.I.U.U.U.U.U.U.U.I.I./.A.                    M.8 y y y u 4                   ",
"                                                        K.U.U.U.U.U.U.U.U.U.U.P.I.I.~.H.                    XX< u y w y p                   ",
"                                                        x.I.U.U.U.U.U.U.U.U.U.I.I./.z.                        w y y p 9 }.                  ",
"                                                        A./.I./.I.I.I.U.I./.I./.I.I.J.                        {.4 i w 7                     ",
"                                                          c.Y.P.I.U.U.I.I.I.I.I.(.z.'.                          M.6 t                       ",
"                                                          K.P.U.U.U.I.I.I.U.I.Y.K.R.                                                        ",
"                                                            Z.x./.(.U.I.U.U.(.K.Z.                                                          ",
"                                                              _.V.x.K././.K.l.E.                                                            ",
"                                                                  `.R.B.B.R.].                                                              "
};
