/* XPM */
static char *_15e18b87f9a45b3add4d0952d0db606SAg0SU4DXvkmxVob[] = {
/* columns rows colors chars-per-pixel */
"70 70 218 2 ",
"   c None",
".  c black",
"X  c #100F12",
"o  c #3B0000",
"O  c #353C3B",
"+  c #33342D",
"@  c #5A0000",
"#  c #39423D",
"$  c #3D402E",
"%  c #6A641F",
"&  c #434734",
"*  c #685C39",
"=  c #7C6C24",
"-  c #675813",
";  c #394342",
":  c #3D4749",
">  c #334853",
",  c #36556D",
"<  c #3D617C",
"1  c #434D4C",
"2  c #414746",
"3  c #4C5345",
"4  c #46524E",
"5  c #4D524D",
"6  c #515849",
"7  c #4B5553",
"8  c #4D5956",
"9  c #495655",
"0  c #535E5C",
"q  c #535954",
"w  c #594E41",
"e  c #635B43",
"r  c #54625E",
"t  c #59655C",
"y  c #766853",
"u  c #79775F",
"i  c #4B5B65",
"p  c #566562",
"a  c #596965",
"s  c #5B6A66",
"d  c #4E6578",
"f  c #707572",
"g  c #87741D",
"h  c #835E27",
"j  c #BC452C",
"k  c #917F2B",
"l  c #B6632D",
"z  c #D15136",
"x  c #86735B",
"c  c #8E7950",
"v  c #BA6E40",
"b  c #9C890D",
"n  c #AA9200",
"m  c #B69B02",
"M  c #AC951E",
"N  c #B79D1C",
"B  c #B69B16",
"V  c #BBA000",
"C  c #9A8428",
"Z  c #A99223",
"A  c #B59C23",
"S  c #A28C37",
"D  c #AB9333",
"F  c #B39B3C",
"G  c #BBA128",
"H  c #BBA439",
"J  c #C5A700",
"K  c #D8B602",
"L  c #C3A61D",
"P  c #C5AC1F",
"I  c #D5B718",
"U  c #CEB40F",
"Y  c #E1BE00",
"T  c #C6AB24",
"R  c #CEB12D",
"E  c #DBBB24",
"W  c #DBBC2A",
"Q  c #D4B625",
"!  c #C5AA39",
"~  c #D4B73D",
"^  c #E1BF28",
"/  c #EAC602",
"(  c #F3CC00",
")  c #F7D000",
"_  c #FFDA01",
"`  c #FBD504",
"'  c #ECCB1F",
"]  c #FEDA16",
"[  c #ECCA25",
"{  c #E8C627",
"}  c #F1CE28",
"|  c #F6D127",
" . c #FAD627",
".. c #FFDA24",
"X. c #F7D32A",
"o. c #FAD529",
"O. c #FFDA2A",
"+. c #EAC934",
"@. c #FBD735",
"#. c #FFDD32",
"$. c #FEDB3E",
"%. c #F7D231",
"&. c #FFE32A",
"*. c #FFE626",
"=. c #FFF22B",
"-. c #FFE334",
";. c #AD9548",
":. c #B39841",
">. c #A58955",
",. c #AC9658",
"<. c #BFA549",
"1. c #93856E",
"2. c #A68C68",
"3. c #AD9A6A",
"4. c #BB9D73",
"5. c #AF9D74",
"6. c #AEA179",
"7. c #B7A46C",
"8. c #D6B848",
"9. c #C8AE52",
"0. c #C6AE49",
"q. c #C2A373",
"w. c #C9A97B",
"e. c #D3AE73",
"r. c #D8B378",
"t. c #CEB067",
"y. c #DEC46A",
"u. c #3D6A8A",
"i. c #3E7DA7",
"p. c #496C87",
"a. c #487596",
"s. c #547894",
"d. c #5F798F",
"f. c #787D82",
"g. c #4C7EA2",
"h. c #69859B",
"j. c #5385AA",
"k. c #4B8EBC",
"l. c #558CB5",
"z. c #588EB7",
"x. c #5A93BC",
"c. c #4E86AC",
"v. c #6596BC",
"b. c #6F92B0",
"n. c #7599B8",
"m. c #658FAF",
"M. c #4C99CA",
"N. c #5C96C1",
"B. c #5D99C5",
"V. c #5F9DCA",
"C. c #4C9ED3",
"Z. c #619ECB",
"A. c #649DC7",
"S. c #58A7DC",
"D. c #61A0CE",
"F. c #7CA4C6",
"G. c #65A5D4",
"H. c #67A9D9",
"J. c #6BAEDF",
"K. c #69A8D6",
"L. c #70A7D1",
"P. c #5EABE0",
"I. c #6CAFE0",
"U. c #62AEE2",
"Y. c #6DB1E3",
"T. c #6DB5E9",
"R. c #69B4E8",
"E. c #71B2E3",
"W. c #71B7EA",
"Q. c #71B9ED",
"!. c #73BBF0",
"~. c #888888",
"^. c #989796",
"/. c #8F8F89",
"(. c #A99B84",
"). c #BAAB8C",
"_. c #B5AD9B",
"`. c #9D9FA3",
"'. c #8EA5BA",
"]. c #94AABF",
"[. c #A5A6A8",
"{. c #B5B5B5",
"}. c #BEBEBE",
"|. c #B5B8BC",
" X c #AFB1B3",
".X c #D8B683",
"XX c #C2B598",
"oX c #C9B086",
"OX c #E1BD86",
"+X c #C3BAA9",
"@X c #D1C69C",
"#X c #C6C2BB",
"$X c #D2CAB3",
"%X c #D5CAAC",
"&X c #86A6C3",
"*X c #A8B5C4",
"=X c #BDC1C7",
"-X c #C7C7C9",
";X c #DBD7CC",
":X c #CCCFD7",
">X c #CFD1D4",
",X c #D4D4D3",
"<X c #DCDCDC",
"1X c #D7D7D9",
"2X c #D4CEC0",
"3X c #E2E1DB",
"4X c #DBDDE1",
"5X c #E5E5E4",
"6X c #ECECEC",
"7X c #E5E6E9",
"8X c #F1EFEC",
"9X c #EAECF1",
"0X c #EEF0F4",
"qX c #F5F4F4",
"wX c #F9F7F4",
"eX c #F4F5F9",
"rX c #FFFFFE",
"tX c #FCF9F6",
/* pixels */
"                                                                                                                                            ",
"                                                                                                                                            ",
"                                                                                                                                            ",
"                                                                                                                                            ",
"                                                                                                                                            ",
"                                                                                                                                            ",
"                                                                                                                                            ",
"                                                                                                                                            ",
"                                                                                                                                            ",
"                                                                                                                                            ",
"                                          c                                                                                                 ",
"                                f.> 7.y./ @.O.O.{ R                                                                                         ",
"                              eX`.m *._ @.O. . .O.&.O.0.                                                                                    ",
"                            -X%X/ W X.X. .o.@.@.@.%.O._ J n                                                                                 ",
"                              J #. .o.o.o...) ( ( _ / ).;X3X}.                                                                              ",
"                              +.o.o.X.o.` ~ +X$X$X9._.rXrXrXrX/.                                                                            ",
"                              X.O.X.o.] <.4XrXrXrX0X{.6X9X,X$X/.                                                                            ",
"                              D &. .$.) _.rXrXrXrX,X`.7.8./ ( m x                                                                           ",
"                                Z &.^ I H 1XrXrXrX7X5.Y { 8.,.q.OX.Xq.2.                                                                    ",
"                                  M J A J m oX%X@X>.:.4.4.w..X.Xr.e.oXx             A T                                                     ",
"                                    y C X.} _ / n q..Xr.r.r.q.q.).+X~.              &.E                                                     ",
"                                      u V -.X.;.oXe.q.oXXX_.+X{.^.                Z { A H     { G                                           ",
"                                      H I X.I 2.4. X=X`.[.f a x >.        I R     P N O...% L =.N                                           ",
"                                        <.F J 3.w : + . . @ . . 2.4.      W =.%.R  .N N Q o.o.O.g                                           ",
"                        T O.                A 0.y . . j z j o + q.w.        C O... .| E  .O.O.Q                                             ",
"                        C *.H                 ^ :.2.c v l h >..Xw.e   ~.      S O.O.{ N  . .O.C                                             ",
"                T     H E L E     R [         F _ J >.(._.+X(.c J ( +X-X5X^.    C { { T o.O.Q                                               ",
"              S =.{ * { O.o.B W D *.K <X      f %X;X9XrXrXrX|.5X2Xt.m ^.,X5X~.    T ..o.o.o.X.X.!                                           ",
"                W &.' [ T P L  .O._ 9.rX    ^.rXrXrXrXrXrXqX{.rXrXeX<XqXqX[.5X  k I O.X.o.o. .O.*.Q                                         ",
"                  [ #.O...^ ^ ..o.] :.:X3X{.[.<X6XtXqX5X<X-X,XrXrXrXrXrXrXrX|.3.' W O.o.o.o. .X.O.&.H                                       ",
"                    I o.o.O.L P -.K +XrXrXrXeX6X4X{.{.5X7XqXrXrXrXrXrXrXrXrXeX6.( #.@.o.o.o.o.o.X...+.                                      ",
"                      G  .O.} E -.U 6.,XrXrXrXrXrXrX}.0XrXrXrXrXrXrXrXrXrXrXrX0X).I ( ..@.X.o. .O.=.8.                                      ",
"                    ! O. .o. . .O.{ m ( 6.9XrXrXrXrX5X{.rXrXrXrXrXrXeX5X6XrXrXrXrX7X+X! ) -.-.O.[ T                                         ",
"                  Z &.o.o. .o.X. .| W $.) 6.0XrXtXrX1X-XrXrXrXeX<X,X>X<XeXrXrXrXrXrXrX9X_.n V k                                             ",
"                  { O.o.o.o.o.o.o.o.O.X.-.K }.rXrXrX X8XrXrXrXrX6XqXrXrXrXrXrXrXrXrXrXrXrX:X                                                ",
"                = ..o.o.o.o. . .o.o.o.X.$._ ).rXqX X7XrXrXrXrXrXrXrXrXrXrXrXrXrXrXrXrXrXrXrX6X                                              ",
"                - O.O.o.o.X.o.X.X.o. .O.] J 1.>X}.6XrXrXrXrXrXrXrXrXrXrXrXrXrXrXrXrXrXrXrXrXrX5X                                            ",
"                  A &.O. .O.O.O.O.&.@.K (.-X|.5XrXrXrXrXrXrXrXrXrXrXrXrXrXrXrXrXrXrXrXrXrXrXrXrX1X                                          ",
"                    F E | o.o.[ Q G     -XrXrXrXrXrXrXrXrXrXrXrXrXrXrXrXrXrXrXrXrXrXrXrXrXrXwXrX-X                                          ",
"                                        <XrXrXrXrXrXrXrXrXrXrXrXrXrXrXrXrXrXrXrX8X1X=X*X].'.&XF.i.l.                                        ",
"                                        5XrXrXrXrXrXrXrXrXrXrXrXrXrXrXrXrX7X=X'.v.M.M.S.S.U.U.Y.Q.!.Q.U.L.m.                                ",
"                                        <XrXrXrXrXrXrXrXrXrXrXrXrXrXwX>X'.N.C.S.Y.W.E.E.I.J.E.J.J.J.I.I.T.Q.v.                              ",
"                                        ,XrXrXrXrXrXrXrXrXrXrXrX6X=Xn.C.H.Y.E.J.J.J.J.J.J.I.J.J.J.J.J.I.J.I.Q.v.                            ",
"                                        ^.qXqXwXwXwXwXwX8X5X,X|.x.C.R.E.J.J.J.J.J.J.J.J.J.I.J.I.J.J.J.J.J.J.Y.T.                            ",
"                                            d.F.n.b.n.v.v.x.k.S.Y.E.J.J.J.J.J.J.J.J.J.J.J.J.J.J.J.J.J.J.J.I.I.Q.j.                          ",
"                                              k.Q.R.R.Y.R.J.Y.Y.J.J.J.J.J.J.J.J.J.J.J.I.Y.I.I.J.J.J.J.I.J.J.I.Q.c.                          ",
"                                                p.x.G.J.Y.Y.Y.Y.J.I.J.Y.E.Y.Y.W.W.W.W.I.H.H.J.J.I.J.J.J.J.J.I.Q.g.                          ",
"                            1 1 q 8               , N.z.z.B.A.G.K.H.H.H.D.D.A.N.z.g.a., < N.J.J.J.J.J.I.J.J.I.Q.g.                          ",
"                          O s 7 9 s a $ a.S.<     u.G.Y.G.B.x.x.z.z.z.x.x.V.d.          d T.I.I.J.J.J.J.J.J.Y.Y.                            ",
"                          1 a 0 : a p t 9 W.B.H.J.G.J.J.Y.Y.T.Y.Y.I.Y.I.T.Q.h.          d V.Y.Y.Y.J.J.J.J.J.Y.A.                            ",
"                          + 8 4 : s r a $ D.G.z.T.Y.J.J.J.J.J.J.J.J.J.J.Y.A.            K.Z.l.N.K.J.Y.Y.E.Y.Q.b.                            ",
"                          ; 4 4 ; 8 p a # D.H.c.I.J.J.J.J.J.J.J.J.J.U.Y.Q.s.          7 s.J.T.V.z.z.x.N.B.B.N.                              ",
"                        ; a 0 4 ; r p p : J.V.l.Y.J.J.J.J.J.J.J.J.J.I.Q.j.          1 a 6 9 j.H.Y.Y.H.K.G.H.s.                              ",
"                        ; a a 9 : a p 6 p.Q.c.A.Y.J.J.J.J.I.J.J.J.Y.Q.j.            r a p r 3 8 p.j.x.B.V.x.                                ",
"                        # a p : 4 p a & V.K.z.T.Y.J.I.Y.I.I.Y.T.!.Z.s.              1 s 0 p a t q 6 3 3 3 3                                 ",
"                        O a p ; r a 0 : p.< N.H.J.W.W.W.W.W.K.x.a.                    2 7 p p r t a p a a a 0                               ",
"                        O s 4 7 s r                                                     q 0 a p p r p p r p 0                               ",
"                          8 4 r 1                                                           7 a a p p p r p 0                               ",
"                          X O                                                                   7 r p p p p 0                               ",
"                                                                                                    7 q 0 8                                 ",
"                                                                                                                                            ",
"                                                                                                                                            ",
"                                                                                                                                            ",
"                                                                                                                                            ",
"                                                                                                                                            ",
"                                                                                                                                            ",
"                                                                                                                                            ",
"                                                                                                                                            ",
"                                                                                                                                            ",
"                                                                                                                                            "
};
