/* XPM */
static char *_d3ed9bd7a5549e0dad952d0980da726S9n9eDbAnjmsuFFG[] = {
/* columns rows colors chars-per-pixel */
"70 70 242 2 ",
"   c None",
".  c #000000",
"X  c #00000A",
"o  c #120E11",
"O  c #110126",
"+  c #2A1331",
"@  c #392636",
"#  c #2B2600",
"$  c #482D3C",
"%  c #5F2C21",
"&  c #377B3F",
"*  c #5B492E",
"=  c #6A5439",
"-  c #705634",
";  c #796639",
":  c #505225",
">  c #38104B",
",  c #253A6A",
"<  c #4C0056",
"1  c #5B0156",
"2  c #570356",
"3  c #441957",
"4  c #461A59",
"5  c #441758",
"6  c #5E135C",
"7  c #791A43",
"8  c #7F0D52",
"9  c #5F2246",
"0  c #4B3346",
"q  c #533A4B",
"w  c #4A2456",
"e  c #583A54",
"r  c #482A4C",
"t  c #622B4D",
"y  c #5E1460",
"u  c #581B64",
"i  c #5A167A",
"p  c #510869",
"a  c #552F6A",
"s  c #61326E",
"d  c #6D3676",
"f  c #693776",
"g  c #713F7F",
"h  c #602F71",
"j  c #00724D",
"k  c #385766",
"l  c #126167",
"z  c #2E6567",
"x  c #1E5F66",
"c  c #5A4651",
"v  c #745A47",
"b  c #7A5C55",
"n  c #775A54",
"m  c #6B4A51",
"M  c #7D6345",
"N  c #7D634A",
"B  c #7F6350",
"V  c #49486C",
"C  c #565066",
"Z  c #634161",
"A  c #6C4B65",
"S  c #784C69",
"D  c #69546C",
"F  c #73526D",
"G  c #775167",
"H  c #795078",
"J  c #78616F",
"K  c #406048",
"L  c #883C2F",
"P  c #984E02",
"I  c #A35B09",
"U  c #9A7811",
"Y  c #B57705",
"T  c #B16F11",
"R  c #90513C",
"E  c #967A2B",
"W  c #8D7D2D",
"Q  c #BA7B28",
"!  c #A97525",
"~  c #AE4C28",
"^  c #FF5D00",
"/  c #F35700",
"(  c #EF5A00",
")  c #C76D18",
"_  c #D96A16",
"`  c #D1730D",
"'  c #E96404",
"]  c #FD6300",
"[  c #F56701",
"{  c #E76D11",
"}  c #C37924",
"|  c #D37321",
" . c #860855",
".. c #871556",
"X. c #87114E",
"o. c #8A274B",
"O. c #8C2A4A",
"+. c #872448",
"@. c #8D2750",
"#. c #8E2951",
"$. c #902651",
"%. c #99395F",
"&. c #8F3549",
"*. c #903E60",
"=. c #924656",
"-. c #846947",
";. c #987858",
":. c #866856",
">. c #A07F5C",
",. c #824968",
"<. c #875B6D",
"1. c #855E7B",
"2. c #9D7669",
"3. c #8B6279",
"4. c #946C78",
"5. c #946A78",
"6. c #9B7375",
"7. c #946A6D",
"8. c #A17E64",
"9. c #A07A6E",
"0. c #A36D76",
"q. c #A4797B",
"w. c #A06F6F",
"e. c #01953B",
"r. c #239C3B",
"t. c #58953B",
"y. c #4C983D",
"u. c #67943A",
"i. c #768E37",
"p. c #43A23A",
"a. c #029345",
"s. c #339D40",
"d. c #00A444",
"f. c #00AD49",
"g. c #00A947",
"h. c #00B34C",
"j. c #3BA142",
"k. c #439F40",
"l. c #B88B16",
"z. c #858833",
"x. c #8D8A32",
"c. c #AA852C",
"v. c #A28831",
"b. c #D2AA00",
"n. c #C29F00",
"m. c #A2805D",
"M. c #A68269",
"N. c #A88466",
"B. c #B58E6F",
"V. c #B9926B",
"C. c #AA8275",
"Z. c #A78278",
"A. c #A98279",
"S. c #B38A73",
"D. c #BC9374",
"F. c #BF9579",
"G. c #B3AA6E",
"H. c #C39A76",
"J. c #C99D76",
"K. c #C59B7A",
"L. c #CA9E7B",
"P. c #C1977A",
"I. c #C0986B",
"U. c #CCA174",
"Y. c #CDA17D",
"T. c #D2A67E",
"R. c #D6AA7E",
"E. c #661389",
"W. c #6B258A",
"Q. c #6C2989",
"!. c #75398A",
"~. c #742D93",
"^. c #792F99",
"/. c #7C3B93",
"(. c #783394",
"). c #6D2D88",
"_. c #7D438B",
"`. c #7A4586",
"'. c #7F4390",
"]. c #823E9A",
"[. c #844B8D",
"{. c #875488",
"}. c #814591",
"|. c #8C4D9B",
" X c #854697",
".X c #925996",
"XX c #8D5396",
"oX c #8C6483",
"OX c #97678B",
"+X c #9A6992",
"@X c #9E728E",
"#X c #A47689",
"$X c #A4759B",
"%X c #A67797",
"&X c #A06D90",
"*X c #9351A2",
"=X c #9552A5",
"-X c #914EA1",
";X c #AD7BA4",
":X c #B17DAA",
">X c #70B4BC",
",X c #00D4FF",
"<X c #10D4FF",
"1X c #30D2F9",
"2X c #61C4D9",
"3X c #AF8282",
"4X c #B48785",
"5X c #BA8D88",
"6X c #B583AA",
"7X c #BB85B2",
"8X c #B9B9B8",
"9X c #AAABAB",
"0X c #98B3A0",
"qX c #C49784",
"wX c #CFA281",
"eX c #D1A482",
"rX c #D5A881",
"tX c #DDAD89",
"yX c #D9AA86",
"uX c #DFB088",
"iX c #E1B08A",
"pX c #E0AE87",
"aX c #C996AC",
"sX c #C38CB9",
"dX c #D49CBB",
"fX c #C993B6",
"gX c #CE94C2",
"hX c #D69BCB",
"jX c #DC9FD0",
"kX c #DEA0D3",
"lX c #DBA1C3",
"zX c #E2A3D5",
"xX c #EBAADE",
"cX c #E4A5D9",
"vX c #EDABE2",
"bX c #F1AEE6",
"nX c #F4B0E6",
"mX c #F8B3EA",
"MX c #FFB9F1",
"NX c #C3C5C5",
"BX c #CACCCD",
"VX c #84C2C7",
/* pixels */
"                                                                                                                                            ",
"  _._.`.'.'.'.[.'.[.'.'.}.}.[.}.'._.}._.`.`._.'.}.}.}.}.}.[.[.}.[.!._./.}.'.}.}.}.'.}.[.}.}._.`.!.`.}.}.'.'.}.}.}.}.}._._._.}.}.}.}.[.}._.  ",
"  |.*X-X*X*X=X|.-X=X=X*X*X-X-X*X*X*X*X*X-X|.|.-X*X*X*X*X|.=X*X|.|.|.|.|.*X*X*X*X*X*X*X*X*X|.|.|.|.*X*X*X*X*X-X|.-X=X|.|.|.|.=X*X*X*X-X=X|.  ",
"  w 4 5 3 4 4 > > w 3 4 > h _.w 3 4 3 4 4 3 5 w a w 5 3 3 3 4 4 3 3 d H 3 3 3 3 3 3 4 4 w a w 4 4 3 3 3 3 4 4 `.f > w 4 4 4 3 4 5 4 5 4 w   ",
"  q R M M M M M -.M M M M A  Xb M M M M M M -.= !.A ; M M M -.v M ; `.XX; -.M M M M M ; m !.v ; -.M N M M M = /.1.; M M M M M M -.v -.-.q   ",
"  |.@XN.M.M.M.M.8.M.M.M.N.F  X9.N.M.M.M.M.M.N.{.!.[.2.N.M.8.M.M.M.;.`.XX8.M.M.8.M.M.N.2.[.!.[.2.N.M.M.M.M.N.;./.{.N.M.M.M.M.M.M.8.M.m.+X`.  ",
"  r |.{.m.m.m.M.8.8.8.8.>.H  X2.m.2.8.8.2.m.3.~.# f [.>.8.8.8.8.8.;.`.[.2.8.8.8.2.M.m.{.).# !.{.m.8.M.8.8.M.:.(.oX>.2.N.8.8.8.8.8.>.{.].>   ",
"  o r  XOXU.wXP.L.wXL.L.T.3./.qXwXL.wXL.T.S.(.m T.;.i OXT.L.L.L.T.H.`.{.L.L.wXwXwXY.6.Q.-.R.m ~.q.T.L.L.wXwXB.Q.&XT.wXL.wXL.L.wXH.OX].@ :   ",
"  2.* > ].#XT.T.eXeXeXeXeX3.].K.eXwXwXrXY.XXa N.yXK.m W.4XR.wXeXeXL.`.{.wXeXeXeXrX5X/.c P.yXB.e }.P.rXeXeXrXD.W.#XrXeXwXeXwXeXY.+X/.O M S.  ",
"  D.K.% + ].OXT.eXwXwXwXT.3.].P.rXwXeXY.+Xi -.yXwXrXV.w }.qXeXwXeXL.[..XY.wXwXeXK.XXu N.yXL.yX;.p .XL.eXwXrXB.W.#XT.eXY.wXeXT..X].O = wXF.  ",
"  D.pXP.* + ^.&XT.eXT.eXeX5.].qXrXwXR.#XW.m U.eXL.Y.eX;.p +XL.eXeXJ.`..XY.wXwXR.+XE.-.yXwXwXwXeXv W.#XrXwXeXS.W.&XT.eXeXeXJ.OX].O - K.tXD.  ",
"  B.pXeXP.= + ].&XY.eXwXT.3.].P.Y.R.5X_.r B.eXeXwXwXwXwXv W.#XT.eXH.[..XY.wXR.#X~.* L.eXwXwXwXrXH.q (.4XrXeXD.W.#XrXeXeXY.OX!.O v K.eXyXD.  ",
"  D.tXY.eXP.* + ].OXT.rXT.5.].qXrXL.XXp ;.rXwXwXwXeXwXeXD.0 (.4XrXJ.`..XL.R.5X'.r B.eXwXwXwXwXwXrXN.5 |.K.yXS.W.#XT.eXL.OXQ.X v K.eXwXtXD.  ",
"  D.uXY.wXeXP.* + ].&XU.T.3.].qXR.+XW.= eXeXwXwXwXwXeXwXyX>.5 |.qXU.[.XXY.L.XX< ;.eXwXwXwXwXeXeXeXrX-.i +XR.S.W.&XeXwX+X).o v L.eXeXwXtXP.  ",
"  D.tXwXwXeXeXP.* + ].OXR.5.(.L.4X^.$ D.eXwXL.wXeXeXeXeXeXyX-.h &XH.[..XT.&XW.= wXwXeXeXeXeXeXwXeXeXK.* Q.#XV.W.%XU..Xd X v L.eXY.eXeXtXD.  ",
"  D.uXwXeXL.Y.eXP.- O ).#X3. Xq.|.> m.yXwXeXeXT.Y.U.U.U.J.L.I.# E.<.g {.0.E.# N.U.U.U.U.U.wXwXeXeXeXrXN.> |.7./.+X&XQ.. -.L.eXeXwXeXwXtXD.  ",
"  D.uXeXwXwXeXwXeXP.= O !.`.|.|.i ; rXT.eXeXeXS.aXaXaXaXaXaXaX7X;X:X:X6X6X:X6XaXaXaXaXaXfXqXY.eXwXeXwXeX-.u '.'.|.!.X B K.eXwXwXwXwXwXyXF.  ",
"  V.pXR.T.T.T.T.eXrXK.; o f |.d : K.R.R.T.T.R.4XkXvXvXvXvXvXbXcXbXnXxXxXxXxXnXzXvXvXcXbXbXdXU.yXeXT.eXrXY.- h |.`.. -.Y.rXT.eXT.rXrXeXuXH.  ",
"  4.5X#X#Xq.q.3X3X3X4X6.Z h  Xa <.A.#Xq.#X#Xq.%X$XoXnXjX0 cX7X. F bX;X+ 0 A zX0 gX1.. sXmXfXq.#X3X3X3XA.4X4.w }.H A #X3X3X3X3X3X3X3X4X5Xq.  ",
"  /.~.~.(.~.~.~.~.^.W.).'.'.'.'.].~.].~.].].E.+X@X@ bXfX. hX$ . . 7X;X. . c 7XD sX. . e bXgXE./.~.~.~.W.W.!. X/.!./.!.~.~.).W.W.Q.~.~.^.).  ",
"  m :.b b b b b b b b n n n b b n b b b -.=.v 4.$X. xX7Xo 6X@ cX@XH %X$XkXzX6XsX;XOXkXo cXsX= b b b b b b n n n v n b b b b b b b b b b n   ",
"  N.wXP.H.H.H.H.H.F.H.H.F.H.F.P.F.H.H.F.P.P.V.#X$X. kX$Xo 3.OXmXhXA oX6XMXnXxXnXOX$XMX3.jXdXV.P.P.P.H.P.H.P.H.H.P.H.P.P.H.H.H.P.H.P.H.Y.B.  ",
"  D.iXeXeXeXT.eXeXrXeXeXeXrXeXeXeXeXeXeXeXrXV.#X$X. gXoX+ A 6XmXkXD 3.A @X;XxXnX6X. $XkXbXdXY.eXeXeXeXeXeXeXeXeXeXeXeXeXrXeXeXeXeXeXeXtXD.  ",
"  D.tXeXeXwXwXY.eXwXwXwXY.wXwXwXeXT.eXeXeXeXH.6.;X. 6XF 0 c 7XbXcXF 3.. . @ xXxXkX@ . oXnXdXU.wXeXT.wXwXwXwXeXeXwXeXwXwXwXY.wXwXwXwXwXtXD.  ",
"  D.tXwXeXwXwXeXwXeXeXwXwXeXeXeXeXeXY.eXeXeXK.6.;Xq oXD A c 7XbXcXF 1.H 6X7XxXxXcXhX{.. kXdXU.wXwXeXeXwXwXeXeXwXeXwXeXwXeXeXwXeXwXwXwXtXF.  ",
"  D.tXwXwXL.wXeXeXwXwXeXeXwXwXeXeXeXeXeXeXeXH.#X+XoX@ F oXA $XmXjXA 1.7XMXnXxXnX1.sXmXc gXlXU.wXeXwXeXeXeXY.eXeXeXeXeXwXeXwXwXeXwXwXwXtXF.  ",
"  D.tXwXwXeXeXwXeXwXeXeXwXeXwXwXeXeXeXeXwXeXH.6.@X$X0 oXOX@Xc bX;XF $X$XxXzXxXnX1.;XmXc gXlXU.wXeXwXeXwXwXY.eXwXwXwXY.Y.wXeXeXwXwXrXwXrXD.  ",
"  D.uXwXeXwXeXeXY.eXeXwXwXwXL.eXeXY.eXeXwXeXG.@XoX$Xe $XH sXX A . ;X$X. . o jXnX:X. A . cXhXU.wXwXeXeXwXeXeXeXwXeXeXwXwXeXwXeXeXeXwXwXtXD.  ",
"  D.tXwXeXeXeXwXeXeXeXeXeXwXwXwXwXeXeXeXwXeXF.3X;X7X@X7XOXkX6X. c xX6X+ q e kXnXcXc . $XmXdXU.eXeXeXeXwXeXwXeXeXwXeXeXeXeXwXeXeXwXwXwXtXF.  ",
"  D.uXwXwXwXwXwXwXwXwXwXwXwXwXwXwXwXY.eXwXeXU.7.gXjXhXjXhXkXkX6XfXkXlXhXhXhXkXjXkXgX6XjXkXfXU.eXwXwXwXwXeXwXwXwXwXwXwXwXwXwXwXwXwXwXwXtXF.  ",
"  D.tXwXeXrXrXeXrXR.rXeXrXrXrXrXeXrXrXrXrXrXY.B m m m @ 0 @ @ c 0 @ $ 0 0 0 @ @ @ 0 c m c 2.rXY.eXrXrXrXrXeXrXrXrXrXrXeXrXrXrXrXrXrXrXtXD.  ",
"  D.tXwXF.C.Z.C.A.A.C.Z.A.C.C.Z.Z.Z.Z.Z.Z.Z.S.F.D.F.V.c s s f s h s s s s s f f f u :.H.H.T.eXeXP.C.q.C.Z.C.Z.C.A.Z.C.A.Z.C.A.Z.Z.Z.S.uXF.  ",
"  D.uXY.7.p 1 1 < 2 1 1 2 1 1 < 1 2 < 2 1 > 6.yXeXrXU.Z !.g H !.`.f `.H !.d g g g d 0.yXeXeXeXeXC.p 1 6 2 < 1 1 < 1 1 < 1 1 < 1 6 < G iXF.  ",
"  D.tXT.2.k Y ( t.x./ x.u.( ! a.' ` e.' ` j 0.eXwXeXL.Z f 9 9 9 9 9 9 9 0 9 9 9 $ u 5.eXwXeXeXeXS.V E / x.t.( Q e.' ` e.) ' r.) [ & <.iXF.  ",
"  D.tXwX6.z p.E g.d.E g.f.E j.f.z.i.h.x.i.j 0.yXwXwXU.Z f +.@.o.o...8 8 ..O.o.@.O.6 4.eXwXeXwXeXS.C d.E d.f.E t.f.x.u.h.u.x.f.u.x.a.<.uXF.  ",
"  D.tXR.w.z c.{ j.z.' i.t.' v.d._ Q d.| } j 6.rXwXeXU.s d +.#.#.@.&.Y Y =...#.@.O.y 4.R.wXwXwXeXC.V z.' i.k.{ v.d._ } d.} _ d.Q { & <.iXD.  ",
"  D.tXY.w.m ] ^ T _ ] _ ) ^ ' ! ^ ] T ^ ] L 6.yXwXeXL.s f o.@.#.X.l.VX>Xc.&.O.$.O.y 4.rXwXwXwXyXS.a ' ^ _ T ^ ' ! ^ ^ ! ] ^ T ^ ] ~ J iXD.  ",
"  D.tXT.w.z c.' y.x.[ i.t.' v.d._ } d._ ) j 6.yXwXeXU.Z d o.#...P 0X,X,X>XI ..O.O.y 4.rXwXwXwXeXS.V x.' z.y.' v.d._ } d.} _ d.Q { & <.iXD.  ",
"  D.tXrXw.z d.W f.d.E g.h.E s.h.W u.h.z.u.a.0.rXwXwXU.Z d @.#. .I >X,X1X2XT  .#.o.y 4.rXwXwXwXrXC.C d.E f.h.E s.f.z.u.h.t.W h.t.x.a.<.iXF.  ",
"  D.uXY.9.k } ] i.c.^ v.z./ Q t.' _ u.{ { K 6.rXwXwXY.Z d @.#. .I VX,X,X2XY  .#.o.y 4.rXwXwXwXeXS.V v./ v.z.^ } t.[ _ y.| [ i.| [ ; <.iXD.  ",
"  D.tXwX6.C [ ^ ) _ ^ ) Q ^ { ! ^ ^ Q ^ ] R 4.T.wXeXL.Z d O.#.@.P G.1X,X0XP ..#.O.6 4.rXwXeXwXyXS.a _ ^ _ ) ] ' ! / ] E ] ^ ! / ] ~ J pXD.  ",
"  D.tXrX2.z z._ d.u._ j.d._ i.g.} v.f.c.c.j 0.rXwXeXL.s f O.#.#.8 U G.G.Y ..O.#.O.6 4.rXwXwXeXeXC.V t._ u.d.) z.g.} ! f.v.} g.v.} a.<.uXD.  ",
"  D.tXY.9.z r.W f.g.W d.g.W s.f.i.u.f.M u.j 0.rXwXeXL.Z f O.o.$.@.8 P P ..@.#.@.O.y 4.R.wXwXwXrXC.C g.W d.f.z.k.f.i.u.f.t.z.h.t.z.a.<.uXD.  ",
"  D.yXT.w.k ` ^ x.! ^ c.x.^ } u.^ { i.{ [ K 6.rXwXeXL.Z f O.#.o.@.@... .#.@.@.#.O.y 4.rXwXwXwXwXS.V Q ^ c.z.] | u.] { y._ ^ i.| ] ; <.uXD.  ",
"  B.yXrX6.C { ] l.` ] ` Y ] ` c.] [ Y [ [ - 0.R.wXeXL.Z d o.@.@.@.@.#.#.#.#.@.#.O.6 4.rXwXwXwXrXC.V ` ] ` Y ] ' U ] [ W [ ] T ' [ ~ J uXD.  ",
"  D.tXeX9.a n %.C C %.C C %.m x %.,.l *.<., 0.rXwXeXL.Z d o.#.@.@.@.@.@.@.@.@.#.O.y 4.rXwXwXwXrXC.s C %.D k %.G x %.,.l ,.%.x ,.%.k <.uXF.  ",
"  D.tXeX2.G F D S F D S G D F ,.D D ,.F F S C.rXwXeXK.Z d o.#.@.@.@.@.@.@.@.@.#.O.y 6.rXwXwXwXeXS.G S D G S D F ,.D D ,.D D ,.F D S 2.tXD.  ",
"  D.uXY.L.K.K.K.U.K.K.J.J.L.K.J.J.K.H.J.K.J.L.eXwXeXU.Z d o.#.@.@.@.@.@.@.@.@.#.X.1 4.rXwXwXrXwXK.J.J.J.K.J.L.K.U.U.J.J.L.K.U.U.J.K.L.tXP.  ",
"  D.tXwXeXeXeXeXeXeXeXeXeXeXeXeXeXeXeXeXeXeXeXeXwXeXL.s d o.#.@.@.@.@.@.#.$.$. .R s 5.rXwXeXwXeXeXeXeXeXeXeXeXeXeXeXeXeXeXeXeXeXeXrXwXtXF.  ",
"  D.tXwXwXwXeXeXeXeXY.wXeXeXeXeXeXY.eXeXwXeXwXeXwXeXU.Z d o.#.@.@.@.#.$.O.$. .-.n.m 5.rXwXwXeXwXY.wXeXeXeXY.eXeXeXeXwXwXeXwXeXwXY.wXwXtXD.  ",
"  D.tXwXwXeXeXwXeXeXwXeXwXeXeXwXeXwXwXeXeXeXeXwXwXeXU.Z d o.#.@.@.@.O.o.$.#. .l.b.S 3.R.wXwXeXeXeXwXeXeXeXwXeXwXeXeXwXeXeXeXeXeXwXeXY.tXF.  ",
"  D.uXwXeXwXeXeXwXeXeXwXeXwXeXeXeXwXeXeXeXwXwXeXwXeXU.Z d o.@.@.@.@.$.$.#.#.@.l.b.m 5.rXwXeXwXeXwXeXeXwXeXwXeXeXwXeXeXwXwXwXeXwXwXwXwXtXD.  ",
"  D.uXwXeXeXwXeXeXwXeXeXeXwXeXwXwXeXwXwXeXwXeXY.wXeXL.Z d o.#.@.@.@.@.@.O.#. .l.b.m 5.T.wXeXwXeXeXeXwXeXeXwXeXwXeXwXeXwXeXwXeXeXwXeXwXtXD.  ",
"  D.tXwXeXwXeXwXwXeXwXwXwXeXeXeXeXeXeXeXeXeXwXeXeXeXL.Z d o.@.@.@.@.@.@.$.O.X.R b.,.5.T.wXwXeXwXeXwXeXwXT.eXeXwXeXeXwXeXwXeXeXwXeXwXwXtXP.  ",
"  D.tXwXwXwXeXeXeXeXwXeXeXwXwXeXeXwXeXwXwXeXwXeXwXeXL.Z d o.#.@.@.@.@.@.$.$.$.X.R s 5.rXwXeXeXwXwXwXeXeXwXwXeXeXwXeXwXeXeXwXwXeXeXeXeXtXD.  ",
"  D.tXwXeXeXwXeXeXwXeXeXwXeXeXwXwXwXT.eXwXeXeXwXwXeXL.Z d o.#.@.@.$.#.o.O.$.$.$.X.1 5.eXwXwXeXeXeXeXwXeXwXeXeXwXeXwXeXwXeXeXwXeXwXeXwXtXD.  ",
"  D.tXwXeXwXeXeXwXeXeXwXeXeXwXeXeXwXeXeXwXeXeXeXeXeXU.Z d o.#.@.@.#.@.@.@.o.#.@.O.6 4.rXeXeXeXwXeXeXwXwXwXeXeXwXeXwXeXY.eXeXwXeXwXeXwXtXD.  ",
"  D.tXeXeXeXwXeXwXeXwXeXwXeXeXwXwXeXeXwXwXeXwXeXeXeXK.Z d o.@.@.@.@.@.@.@.@.#.$.O.y 4.R.T.eXeXwXwXwXeXT.eXwXeXeXwXeXwXeXeXeXeXwXeXeXwXtXD.  ",
"  D.tXeXwXeXwXL.eXeXY.eXeXwXeXY.wXeXeXwXeXeXeXeXwXeXK.Z d o.@.@.@.@.@.@.@.@.@.#.O.y 5.rXwXwXeXeXeXwXwXeXeXwXeXwXeXeXwXwXeXwXeXwXeXwXwXtXD.  ",
"  D.pXwXeXwXY.Y.eXeXeXeXwXeXeXeXeXwXeXeXeXY.eXwXeXeXL.Z d o.#.@.@.@.@.@.@.@.@.@.O.y 5.T.wXeXeXwXeXeXeXeXwXeXeXwXeXwXeXeXeXeXwXeXwXwXwXyXP.  ",
"  D.tXwXwXeXwXwXeXeXeXeXeXeXeXeXeXeXwXwXwXeXeXwXeXeXY.Z d o.#.@.@.@.@.@.@.@.@.$.O.y 5.rXwXwXeXeXwXeXeXwXwXwXeXeXeXeXY.eXwXeXeXY.wXeXwXtXP.  ",
"  D.tXwXeXeXeXeXwXeXeXL.L.eXeXwXwXeXeXeXeXwXeXeXwXeXL.Z d o.#.@.@.@.@.@.@.@.#.#.O.y 5.rXwXeXwXwXeXwXeXeXT.eXeXwXwXeXeXeXeXwXeXeXeXeXwXtXD.  ",
"  D.tXwXeXwXeXeXeXeXeXY.wXwXwXeXeXwXwXeXeXwXeXwXwXeXL.Z d @.#.@.@.@.@.@.@.@.@.#.O.6 5.T.wXeXeXeXeXwXwXeXeXwXwXeXeXwXeXwXwXeXeXwXeXwXwXyXD.  ",
"  D.tXeXwXeXwXwXeXwXwXeXeXeXwXeXeXwXeXeXwXeXeXwXeXeXL.Z d o.#.@.@.@.@.@.@.@.@.#.O.y 5.rXwXeXeXeXY.eXeXwXwXeXeXwXeXeXwXeXeXwXeXeXeXeXwXuXP.  ",
"  D.tXwXY.wXwXwXwXwXwXwXwXwXwXwXwXwXwXwXwXwXwXwXwXwXU.Z d o.#.#.#.#.#.#.O.@.#.#.O.y 5.eXwXwXwXwXwXwXwXwXwXwXwXwXwXwXwXwXwXwXwXwXwXwXwXyXD.  ",
"  D.iXT.yXrXyXeXrXrXrXeXeXyXeXyXeXyXyXeXeXyXyXeXeXyXU.s d o.$.@.$.$.$.$.$.$.$.$.O.6 6.rXeXyXeXyXyXeXyXeXeXrXyXeXeXyXyXeXeXyXyXeXyXeXrXtXP.  ",
"  2.H.B.B.B.B.B.B.B.B.B.B.B.B.B.B.B.B.B.B.B.B.B.B.S.B.e a 7 7 7 7 7 7 7 7 7 7 7 7 2 <.B.B.B.B.B.B.B.B.B.B.B.B.B.B.B.B.B.B.B.B.B.B.B.B.D.8.  ",
"  9XBXNXNXNXNXNXNXNXNXNXNXNXNXNXNXNXNXNXNXNXNXNXNXNXNXNXNXNXBXNXNXNXNXNXNXNXBXNXNXNXNXNXNXNXNXNXNXNXNXNXNXNXNXNXNXNXNXNXNXNXNXNXNXNXNXBX8X  ",
"  9X8X8X8X8X8X8X8X8X8X8X8X8X8X8X8X8X8X8X8X8X8X8X8X8X8X8X8X8X8X8X8X8X8X8X8X8X8X8X8X8X8X8X8X8X8X8X8X8X8X8X8X8X8X8X8X8X8X8X8X8X8X8X8X8X8X8X9X  ",
"                                                                                                                                            "
};
