/* XPM */
static char *_b5d98bdcfee4850b8c992b908c09c92YHoLa5eXj2Yik1F6[] = {
/* columns rows colors chars-per-pixel */
"70 70 179 2 ",
"   c None",
".  c black",
"X  c #000E01",
"o  c #0D0D08",
"O  c #170000",
"+  c #1F1304",
"@  c #1E150A",
"#  c #000015",
"$  c #021B14",
"%  c #0A1A17",
"&  c #031D1B",
"*  c #101F19",
"=  c #231709",
"-  c #23190B",
";  c #2B1E0D",
":  c #03221E",
">  c #30210F",
",  c #222112",
"<  c #2B2115",
"1  c #2B231A",
"2  c #000E24",
"3  c #00002A",
"4  c #001E2F",
"5  c #000933",
"6  c #042521",
"7  c #042A25",
"8  c #00242F",
"9  c #032D29",
"0  c #192A27",
"q  c #1A2D26",
"w  c #02322E",
"e  c #0D352E",
"r  c #13312B",
"t  c #1B332C",
"y  c #002737",
"u  c #013532",
"i  c #013A36",
"p  c #013D38",
"a  c #0E3E3A",
"s  c #163735",
"d  c #292C22",
"f  c #382F26",
"g  c #293729",
"h  c #3A3129",
"j  c #233937",
"k  c #3B3B34",
"l  c #643000",
"z  c #17413D",
"x  c #274036",
"c  c #22413E",
"v  c #795900",
"b  c #4B4322",
"n  c #765F22",
"m  c #7D6427",
"M  c #264542",
"N  c #485453",
"B  c #585553",
"V  c #71716F",
"C  c #686F70",
"Z  c #767B78",
"A  c #976600",
"S  c #99740F",
"D  c #BC7A00",
"F  c #A56B13",
"G  c #AC7F17",
"H  c #B17610",
"J  c #856924",
"K  c #9A782B",
"L  c #A1793F",
"P  c #C57D00",
"I  c #9D784F",
"U  c #AD810E",
"Y  c #BC8A09",
"T  c #AC8118",
"R  c #BB8B15",
"E  c #9F8037",
"W  c #B28A33",
"Q  c #CB8D00",
"!  c #C98608",
"~  c #D98C01",
"^  c #C59201",
"/  c #CF9905",
"(  c #C6920C",
")  c #CB970C",
"_  c #D89D05",
"`  c #D39C0C",
"'  c #CF8317",
"]  c #C89617",
"[  c #E99903",
"{  c #DCA104",
"}  c #DDA20B",
"|  c #DDA011",
" . c #E2A403",
".. c #EAA200",
"X. c #EBA902",
"o. c #E3A60B",
"O. c #EBAC0A",
"+. c #F1A700",
"@. c #F3AC00",
"#. c #F9AA00",
"$. c #FEB500",
"%. c #FFBB01",
"&. c #FEB60C",
"*. c #FFBB0A",
"=. c #EFAA16",
"-. c #FEB614",
";. c #FFBC13",
":. c #FEB618",
">. c #FFB91B",
",. c #CC9721",
"<. c #C49030",
"1. c #D09A3D",
"2. c #DBA326",
"3. c #E4A623",
"4. c #F3A821",
"5. c #FDB521",
"6. c #FFBA23",
"7. c #E8AD3D",
"8. c #F1B33B",
"9. c #FFC101",
"0. c #FFC904",
"q. c #B78246",
"w. c #BF9052",
"e. c #928570",
"r. c #A98D63",
"t. c #AF9262",
"y. c #A99579",
"u. c #C59846",
"i. c #CA9E59",
"p. c #CDA054",
"a. c #C59B79",
"s. c #D5A96F",
"d. c #CFAB77",
"f. c #4D6F8D",
"g. c #416890",
"h. c #667981",
"j. c #4672A0",
"k. c #547EA6",
"l. c #4E7DB0",
"z. c #6D8399",
"x. c #4D8EB8",
"c. c #5788B6",
"v. c #6B9ABE",
"b. c #779EBD",
"n. c #5793D0",
"m. c #659BC2",
"M. c #6B9DC4",
"N. c #77A5CA",
"B. c #7AABD7",
"V. c #7FB3DE",
"C. c #4AACE9",
"Z. c #6DABE1",
"A. c #78BDF0",
"S. c #858888",
"D. c #888D8E",
"F. c #959284",
"G. c #889193",
"H. c #969C9D",
"J. c #BAA385",
"K. c #ABA496",
"L. c #979FA1",
"P. c #A7A7A2",
"I. c #ADB1B2",
"U. c #B4B5B4",
"Y. c #CEB48F",
"T. c #CEB99A",
"R. c #CDBBA6",
"E. c #D1C6B6",
"W. c #B6BEC3",
"Q. c #8AC1EF",
"!. c #8BC5F5",
"~. c #C6C7C7",
"^. c #D7CDC0",
"/. c #CCD0D2",
"(. c #D8D7D5",
"). c #D9DBDD",
"_. c #EBECEC",
"`. c #E7EDF3",
"'. c #FEFEFD",
/* pixels */
"                                                                                                                                            ",
"                                                                      z.      R R                                                           ",
"                                                                f.Q.!.v.y.X.;.9.9.%.O.(                                                     ",
"                                                              k.V.b.m.u.%.;.$.$.$.$.%.%.O.                                                  ",
"                                                            g.Z.Q.Z.I %.3.` $.$.$.$.$.$.%.o.                                                ",
"                                                            l.c.b.x.1.X.) ` $.$.$.$.%.$.$.9.Y                                               ",
"                                                            j.g.B.A.r./ 3.$.$.$.$.$.$.$.$.%.}                                               ",
"                                                            f.n.x.c.m.} 9.] o.%.$.$.$.$.$.%.o.                                              ",
"                                                              c.L G M.v.X.&.:.&.$.$.$.$.$.;.o.                                              ",
"                                                              A ! D G.N.X.5.+.$.6.>.*.%.>.%.^                                               ",
"                                                                D I C.J.$.+.y.w.~ [ @.4...p.                                                ",
"                                                                  q.k.3.-.#.T.).).).y.Y I.`.                                                ",
"                                                                  P #.$.%.=.Y T.(.E.7.$.Y.K.                                                ",
"                                                                  F 4.%.:.$.=.Q Q #.$.;.$.A                                                 ",
"                                                                  H ~ <.$.$.>.6.6.5.&._ 2.2.                                                ",
"                                                              # b ' [ y.J.@.$.$.&.&.$.( } 9.{                                               ",
"                                                          X e Z P [ -.$.J.K.d.8.$.%.%.0.Y O.0.                                              ",
"                                                        0 . G.a.[ :.$.-.$.,.F.L.r.i.|  .Y   } Y                                             ",
"                                                      : j . W.s.$.:.$.%.,.                                                                  ",
"                                                    : 7 j . /.^.[ 6.X.K 3                                                                   ",
"                                                    7 6 c . ~.'.K.l /.h..                                                                   ",
"                                                  & 9 w s $ Z '.D.. I.Z .                                                                   ",
"                                                  : 9 i w s .   k d U.N :                                                                   ",
"                                                  7 w p e 9 s     N _.N 9 r                                                                 ",
"                                                  7 u i 6 u p     0   7 x r                                                                 ",
"                                                & 9 i u 9 9 p 9   % 0 e 3 4                                                                 ",
"                                                : 9 i 9 u 9 u i % * q u T  .w.t.2./                                                         ",
"                                                6 9 i u u i 9 p 6 , 3 m &.v e.R.K./ S                                                       ",
"                                                : 7 i u u i u u w , 3 K X.R { ) K { O.                                                      ",
"                                                6 7 u u u i i w u d 3 G %./ m E W ^ ]                                                       ",
"                                                6 7 u u 9 u u u w q 2 _ %._ } { U ` }                                                       ",
"                                                6 7 u i u 9 9 u q 4 n $.%.R g T O.} *.                                                      ",
"                                              & 7 7 9 p u p i u j y J 9.o.5 5 J 9.%.(                                                       ",
"                                              6 9 6 7 9 e u u i u u e U   8 t t U                                                           ",
"                                              6 9 7 7 : 6 6 6 9 9 9 i 3                                                                     ",
"                                              & 9 7 u i u i u i i w p g                                                                     ",
"                                              7 7 7 u i i i i i i w i w                                                                     ",
"                                              : 7 7 u i i u u i i w i w                                                                     ",
"                                              7 7 9 i i i i i i i u i w                                                                     ",
"                                              6 9 7 u i i i i i i w i u                                                                     ",
"                                              : 9 7 u i i i i i u u u i                                                                     ",
"                                              6 9 7 u p i u i i p u u w                                                                     ",
"                                              & 7 6 u u u u u u 9 9 w                                                                       ",
"                                                & 7 9 9 u 9 $ w u u p                                                                       ",
"                                                  9 i i p w   i p i p 9                                                                     ",
"                                                  7 i i p w   9 i u p w                                                                     ",
"                                                  7 u i p w   9 p i p w                                                                     ",
"                                                  7 u i p w   6 p i i w                                                                     ",
"                                                  7 e i i u   6 i i i u                                                                     ",
"                                                  : u i p w   : i i p u                                                                     ",
"                                                  6 u i i u     i i i u                                                                     ",
"                                                  7 w i i u     u i i u                                                                     ",
"                                                  6 u i p u     u i i i                                                                     ",
"                                                  6 u u u u     w i i i                                                                     ",
"                                                  7 u i i u     w i i i                                                                     ",
"                                                  6 u i i u     9 i i i                                                                     ",
"                                                  6 u i i w     9 i i p                                                                     ",
"                                                  6 u i i u     9 i i i                                                                     ",
"                                                  6 u i p w     9 i i i                                                                     ",
"                                                  6 i i i w     r z c a                                                                     ",
"                                                  7 u i p 9     X . . 6                                                                     ",
"                                                  r z M a 9     C G.P.Z                                                                     ",
"                                                  . . . : t     S./.U.B                                                                     ",
"                                                  V L.~.D.      . . . O < +                                                                 ",
"                                                  H.(.(.V       < h f < ; ; - -                                                             ",
"                                                  . . . . <     = = - ; ; ; > ; -                                                           ",
"                                                o 1 f h < ; ; =                                                                             ",
"                                                o - - ; > ; ; < ; @                                                                         ",
"                                                      - - - - @                                                                             ",
"                                                                                                                                            "
};
