/* XPM */
static char *b72badfa3c2e4470a813345ddb6c5f6ac1hxEXpc8oLG4WIm[] = {
/* columns rows colors chars-per-pixel */
"70 70 189 2 ",
"   c None",
".  c #000000",
"X  c #000E01",
"o  c #0D0D08",
"O  c #170000",
"+  c #1E150A",
"@  c #1F1304",
"#  c #000015",
"$  c #021B14",
"%  c #031D1B",
"&  c #0A1A17",
"*  c #101F19",
"=  c #231709",
"-  c #23190B",
";  c #2B1E0D",
":  c #03221E",
">  c #30210F",
",  c #222112",
"<  c #2B2115",
"1  c #2B231A",
"2  c #00002A",
"3  c #000E24",
"4  c #001E2F",
"5  c #000933",
"6  c #042521",
"7  c #042A25",
"8  c #032D29",
"9  c #00242F",
"0  c #1A2D26",
"q  c #192A27",
"w  c #02322E",
"e  c #0D352E",
"r  c #13312B",
"t  c #1B332C",
"y  c #002737",
"u  c #013532",
"i  c #013A36",
"p  c #013D38",
"a  c #0E3E3A",
"s  c #163735",
"d  c #292C22",
"f  c #382F26",
"g  c #293729",
"h  c #3A3129",
"j  c #233937",
"k  c #3B3B34",
"l  c #643000",
"z  c #17413D",
"x  c #22413E",
"c  c #274036",
"v  c #795900",
"b  c #4B4322",
"n  c #765F22",
"m  c #7D6427",
"M  c #264542",
"N  c #485453",
"B  c #585553",
"V  c #6F6341",
"C  c #71716F",
"Z  c #767B78",
"A  c #686F70",
"S  c #976600",
"D  c #99740F",
"F  c #9B761D",
"G  c #A07B00",
"H  c #BC7A00",
"J  c #AC7F17",
"K  c #B17610",
"L  c #A56B13",
"P  c #856924",
"I  c #9A782B",
"U  c #A1793F",
"Y  c #C57D00",
"T  c #9D784F",
"R  c #AD810E",
"E  c #BC8A09",
"W  c #AC8118",
"Q  c #BB8B15",
"!  c #9F8037",
"~  c #B28A33",
"^  c #CB8D00",
"/  c #C08F0B",
"(  c #C98608",
")  c #D98C01",
"_  c #C59201",
"`  c #C6920C",
"'  c #CB970C",
"]  c #CF9905",
"[  c #D39A01",
"{  c #D39C0C",
"}  c #D89D05",
"|  c #CF8317",
" . c #C89617",
".. c #E99903",
"X. c #DDA20B",
"o. c #DCA104",
"O. c #DDA011",
"+. c #E2A403",
"@. c #EAA200",
"#. c #EBA902",
"$. c #E3A60B",
"%. c #EBAC0A",
"&. c #F3AC00",
"*. c #F9AA00",
"=. c #F1A700",
"-. c #FEB500",
";. c #FFBB01",
":. c #FEB60C",
">. c #FFBB0A",
",. c #FEB614",
"<. c #FFBC13",
"1. c #FEB618",
"2. c #FFB91B",
"3. c #EFAA16",
"4. c #CC9721",
"5. c #C49030",
"6. c #D09A3D",
"7. c #DBA326",
"8. c #E4A623",
"9. c #F3A821",
"0. c #FDB521",
"q. c #FFBA23",
"w. c #E8AD3D",
"e. c #F1B33B",
"r. c #FFC101",
"t. c #FFC904",
"y. c #BF9052",
"u. c #B78246",
"i. c #928570",
"p. c #A98D63",
"a. c #AF9262",
"s. c #AE987B",
"d. c #A99579",
"f. c #B19979",
"g. c #C59846",
"h. c #CA9E59",
"j. c #CDA054",
"k. c #C59B79",
"l. c #D5A96F",
"z. c #CFAB77",
"x. c #416890",
"c. c #4D6F8D",
"v. c #667981",
"b. c #4672A0",
"n. c #547EA6",
"m. c #4E7DB0",
"M. c #6D8399",
"N. c #4D8EB8",
"B. c #5788B6",
"V. c #7F8EA2",
"C. c #6B9ABE",
"Z. c #779EBD",
"A. c #5793D0",
"S. c #4987C1",
"D. c #6B9DC4",
"F. c #659BC2",
"G. c #77A5CA",
"H. c #7AABD7",
"J. c #7FB3DE",
"K. c #4AACE9",
"L. c #6DABE1",
"P. c #78BDF0",
"I. c #888D8E",
"U. c #858888",
"Y. c #889193",
"T. c #969C9D",
"R. c #959284",
"E. c #BAA385",
"W. c #ABA496",
"Q. c #979FA1",
"!. c #A7A7A2",
"~. c #ADB1B2",
"^. c #B4B5B4",
"/. c #CEB48F",
"(. c #CEB99A",
"). c #CDBBA6",
"_. c #D1C6B6",
"`. c #B6BEC3",
"'. c #8AC1EF",
"]. c #8BC5F5",
"[. c #C6C7C7",
"{. c #D7CDC0",
"}. c #CCD0D2",
"|. c #D9DBDD",
" X c #D8D7D5",
".X c #CFDAE4",
"XX c #EBECEC",
"oX c #FEFEFD",
"OX c #E7EDF3",
/* pixels */
"                                                                                                                                            ",
"                                                          Q Q       M.                                                                      ",
"                                                    ` %.;.r.r.<.#.d.C.].'.c.                                                                ",
"                                                  %.;.;.-.-.-.-.<.;.g.F.Z.J.n.                                                              ",
"                                                $.;.-.-.-.-.-.-.{ 8.;.T L.'.L.x.                                                            ",
"                                              E r.-.-.;.-.-.-.-.{ ' #.6.N.Z.B.m.                                                            ",
"                                              X.;.-.-.-.-.-.-.-.-.8.] p.P.H.x.b.                                                            ",
"                                              $.;.-.-.-.-.-.;.$. .r.X.F.B.N.A.c.                                                            ",
"                                              $.<.-.-.-.-.-.:.1.:.#.C.D.J U B.                                                              ",
"                                              _ ;.2.;.>.2.q.-.=.0.#.G.Y.H ( S                                                               ",
"                                                j.@.9.&...) y.d.=.-.E.K.T H                                                                 ",
"                                                OX~.E d.|.|.|.(.*.,.8.n.u.                                                                  ",
"                                                W./.-.w._. X(.E 3.;.-.*.Y                                                                   ",
"                                                S -.<.-.*.^ ^ 3.-.1.;.9.L                                                                   ",
"                                                7.7.} :.0.q.q.2.-.-.5.) K                                                                   ",
"                                              o.r.X.` -.:.:.-.-.&.E.d...| b #                                                               ",
"                                              t.%.E t.;.;.-.e.z.W.E.-.,...Y Z e X                                                           ",
"                                            E X.  E +.O.h.p.Q.R.4.-.,.-.1...k.Y.. q                                                         ",
"                                                                  4.;.-.1.-.l.`.. j :                                                       ",
"                                                                  2 I #.q...{.}.. j 7 :                                                     ",
"                                                                  . v.}.l W.oX[.. x 6 7                                                     ",
"                                                                  . Z ~.. I.oXZ $ s w 8 %                                                   ",
"                                                                  : N ^.d k   . s w i 8 :                                                   ",
"                                                                r 8 N XXN     s 8 e p w 7                                                   ",
"                                                                r c 7   q     p u 6 i u 7                                                   ",
"                                                                4 2 e q &   8 p 8 8 u i 8 %                                                 ",
"                                                        ] 7.a.y.+.W u 0 * & i u 8 u 8 i 8 :                                                 ",
"                                                      D ] W.).i.v :.m 2 , 6 p 8 i u u i 8 6                                                 ",
"                                                      %.o.I ' o.Q #.I 2 , w u u i u u i 7 :                                                 ",
"                                                       ._ ~ ! m ] ;.J 2 d u w i i u u u 7 6                                                 ",
"                                                      X.{ R o.X.} ;.} 3 0 w u u u 8 u u 7 6                                                 ",
"                                                      >.X.%.W g Q ;.-.n 4 0 u 8 8 u i u 7 6                                                 ",
"                                                      ` ;.r.P 5 5 $.r.P y j u i p u p 8 7 7 %                                               ",
"                                                          R t t 9   R e u u i u u e 8 7 6 8 6                                               ",
"                                                                    2 i 8 8 8 6 6 6 : 7 7 8 6                                               ",
"                                                                    g p w i i u i u i u 7 8 %                                               ",
"                                                                    w i w i i i i i i u 7 7 7                                               ",
"                                                                    w i w i i u u i i u 7 7 :                                               ",
"                                                                    w i u i i i i i i i 8 7 7                                               ",
"                                                                    u i w i i i i i i u 7 8 6                                               ",
"                                                                    i u u u i i i i i u 7 8 :                                               ",
"                                                                    w u u p i i u i p u 7 8 6                                               ",
"                                                                      w 8 8 u u u u u u 6 7 %                                               ",
"                                                                      p u u w $ 8 u 8 8 7 %                                                 ",
"                                                                    8 p i p i   w p i i 8                                                   ",
"                                                                    w p u i 8   w p i i 7                                                   ",
"                                                                    w p i p 8   w p i u 7                                                   ",
"                                                                    w i i p 6   w p i u 7                                                   ",
"                                                                    u i i i 6   u i i e 7                                                   ",
"                                                                    u p i i :   w p i u :                                                   ",
"                                                                    u i i i     u i i u 6                                                   ",
"                                                                    u i i u     u i i w 7                                                   ",
"                                                                    i i i u     u p i u 6                                                   ",
"                                                                    i i i w     u u u u 6                                                   ",
"                                                                    i i i w     u i i u 7                                                   ",
"                                                                    i i i 8     u i i u 6                                                   ",
"                                                                    p i i 8     w i i u 6                                                   ",
"                                                                    i i i 8     u i i u 6                                                   ",
"                                                                    i i i 8     w p i u 6                                                   ",
"                                                                    a x z r     w i i i 6                                                   ",
"                                                                    6 . . X     8 p i u 7                                                   ",
"                                                                    Z !.Y.A     8 a M z r                                                   ",
"                                                                    B ^.}.U.    t : . . .                                                   ",
"                                                                @ < O . . .       I.[.Q.C                                                   ",
"                                                            - - ; ; < f h <       C  X XT.                                                  ",
"                                                          - ; > ; ; ; - = =     < . . . .                                                   ",
"                                                                            = ; ; < h f 1 o                                                 ",
"                                                                        + ; < ; ; > ; - - o                                                 ",
"                                                                            + - - - -                                                       ",
"                                                                                                                                            "
};
