/* XPM */
static char *e702bb790b144002d0d6862d08c19bb2zs7JcvWSTaG7BAkW[] = {
/* columns rows colors chars-per-pixel */
"70 70 85 1 ",
"  c #346F16",
". c #347217",
"X c #3A7617",
"o c #35721A",
"O c #3B751C",
"+ c #3E7A1D",
"@ c #3F7A23",
"# c #40771C",
"$ c #437C1E",
"% c #437D22",
"& c #4A7F25",
"* c #538A1F",
"= c #468021",
"- c #4C8323",
"; c #4F8A25",
": c #4F8728",
"> c #508626",
", c #538A25",
"< c #51872B",
"1 c #558C29",
"2 c #5A8F2C",
"3 c #5A9127",
"4 c #599029",
"5 c #5B9228",
"6 c #5A902B",
"7 c #5D9328",
"8 c #5C9329",
"9 c #5B9428",
"0 c #5D9529",
"q c #5F9729",
"w c #5E952A",
"e c #5B902F",
"r c #5C932C",
"t c #5F962E",
"y c #5F982D",
"u c #598F30",
"i c #5C9131",
"p c #5C9132",
"a c #60972D",
"s c #60962E",
"d c #609829",
"f c #619929",
"g c #61992A",
"h c #60982D",
"j c #639B2C",
"k c #639B2D",
"l c #659D2D",
"z c #669D2D",
"x c #669D2F",
"c c #619532",
"v c #619632",
"b c #619830",
"n c #649930",
"m c #649933",
"M c #639C30",
"N c #649A34",
"B c #659B35",
"V c #659A36",
"C c #659C35",
"Z c #679C34",
"A c #679D34",
"S c #689F33",
"D c #679D38",
"F c #699F39",
"G c #6A9F3A",
"H c #6AA231",
"J c #6BA332",
"K c #69A034",
"L c #6BA135",
"P c #6AA136",
"I c #6BA336",
"U c #6DA534",
"Y c #6DA437",
"T c #6DA537",
"R c #6AA038",
"E c #6CA03A",
"W c #6FA538",
"Q c #6DA43A",
"! c #70A638",
"~ c #70A738",
"^ c #70A73B",
"/ c #73AB39",
"( c #76AD3B",
") c #73A93D",
"_ c #77AE3D",
/* pixels */
"-2Yt;$W:>3f->2-2Yh;%!,,,d->5-5Ih,%~>>3f-;3:2Yd-$!>,3f->3:,Wy;%!1>,f->d",
"-wtMAXwl#,d,$,%fwfbO5l$1f,$>=wthbO7j#,d,%;%wtbAX8l#,w,$;-wylbX3A#1d,$-",
"l,-;5--,1A>-%%l,:,9>-,1A;,$%l,-;w:-:,S--%=f,;;9;-,1S-,%$j,-;3:&,1I--%$",
"w$=+8,1-k1$%o,l$$+w,1-b1+%o,h$%%w,,;k2$%X1j$%#w,2&n1$%o,j$%#q,1-n1#&.1",
"_-3+58P$-+>v$3(-3+55G#-+;v$2(-1$88A$-#;v$5(-7#w8A+-#,a$2)->%qqH+-+;v%,",
"YSBO&,w$$&Bu.tYSB$->d$$&D2.tISn+:,q$$-Bp.tQBA#$>f$$%Bpoa~SB+--d$&%vpor",
"XB<.,$>W1-1O$/$A<.,%-~<-<O$/$n<.1$,W1&2X#($B:o,--Y1&2+%/$k<.,%-!,-2+#_",
";P<;G-la %o2b1;G><G-kd %o2N1>G,<G&hp %o1b1;G<;G&Ay.%o1v1,G,>Q&kao@o,n2",
"1uor2-,-$$1Q1 1u 22-,-%$1G1o<uo52-,-&$,W,o1uo22-,-$$1Q1 2uo22-,-$$1R1o",
"<-O:$-%+-+A,:-<;@>$-%+-OA>;-<-@;$-$+-OS<:-:,O;%&%%-@A<-,<;O;$&%+&@A,-,",
"I-u-22G1%-<$1!S-u-82D1%<>$1WP:u-52A1@-,+1YA:u-22A:@->$1~A-2;52A1%-,$<!",
",--c/-Bv@r,@oH1--v)&Bt+r,%.H,--v)-Ba+a,@oH,--c)-Sa+q,%.H2&-p)-Bt+a,%XH",
"2p.52$+,A-&;B-2v 8u%@,A-:-b-2v 2u%#1S-=,B-2v 8r%%,n;--B-2v 2u%+1S;%>n>",
"P,%,,rsXf5>&Y,S,%>,dhXw3,&Y,H,%,,vaXt7,-Y,H,%,*rvXt2,&I>S,%,,taXw5,%Y>",
":2Rh;&!>>3f-;5-3Ph-&);,3d-,3;1Yh>&I>>3h--3-1Av>&~>:3f-;2-2Pa:$!>>3f->9",
"-wtnAX5l#,w,%,%wdtAX5l#,w:%;=wabs+7k#,f>$,=ahbAX8k+,d,$,%wdln+2B+,f>=-",
"j>-;9-=,1S>-%$l,-;3--,1H:;%%d,-;d>-,1H--$=f,-;w-->,P-;%%l>-,3;=,1S>-%+",
"w=%$935-k1$%.1l#=#w,,-n1$%.1l$%%d,,&b1$&o1l$$+f,1-l1$%.1h$$+w,1-c,$%.1",
"(-,+wwP+=+>p%2/>3+53A$-+,p#2(-,#27G+:+-v$5(-,#w8P+&#;v#3_-8+wwP+-+1u%,",
"UAA+-,w#-&B2.aYSA+:,w$-%BuXtIAA+->d$-$Du.yYAA+-,d#-&Ap.aYAS+->f$&%VuXr",
"XB:.,$;~<-2+$)$B,o,$-!1-<+%/%N:.>$;~1-1O$)%b<o1$-~:-2O$)%n:o,$>Y,-2%$(",
":G<;G&la %o1h1;G<>Q&ly %o5B1;G1:I-kdo%o1M5;R:;G&ld %o1B1;G,,G&lfo%o,k,",
",r.22-,:$$1G,.1po28-,&%$,R1 1u.22-,-%$1R1 1po52&,-$%1G1 1uo22-,-+#1G1.",
"<;+-$&%+-+S<;::,X;$&%@-+A<;&:;O;$&%$-@B,--:;+>%&%#,OA<-;<;+-$-%+-%I,-,",
"R-2-52G1%-<$,)H$u-u2G1%-<$1~H-p;32G2@;<#1WH=p-r2D2%;<%1~A-u-r2D<%-<$,Q",
">--v)-BtOt,%.H2--c)-Ba+t,@oH1--p)-BaOt,%.H2-:pW-B5Ow,%oH1-:p)-At+a,%oY",
"2v pr%%,B---S-pn 8u%#1n-&;B-2p.52%#,h---A-2b.22%#,A:--k-2c 5r%%,k-&;B>",
"I>%,>raXwr,&Y>S,%,,uvXa8>&U,A,%,,rnXh2,&Y,A,%,*tbXq21%Y,A,%,,paXy3>&Y,",
";1Up;-~>;8d->8-1Sa;&Y>>3f-;8-,Pt>$!>,3t-;3-2Pa-&W,;5f->3;1Ph>%!>,,f:,8",
"-wqjA.8l+,d,%>%dannX5l+,w,%>=wwHAOwn+1f,%;%wallXpj+,8,$;%wajAX8l$,w,$-",
"l>-,3;=,1S--$%j,,;9;-,1H--$%l,-;9-$,2A--%-h,-;8-$11A:;%=f,-:d>&,1P--%+",
"w%%$w,,:k1$%o1l$%#w,1-n1$%X1l%%#d,2-l1$%o,l$%#w32-b1$=o,l$$+w,1-a,$&.1",
"(-,+88Q#-+,v$2)->+w7G+-+,v+2);,+d7R#-+;v$2(-5+58A#-+-v#5(;1#w5G+%%;c%,",
"IBB+-,d$%%Du.a!AS+-,d$$&nuXtYAB+->f$%-Bu.tIAb+-,a$&%DpXpQAB+-,q$-%NuXr",
"XA<.,$-!1-2+$/$b<.1%-!<-1+$/$A:o,$>Y1&2O$/$N1.1%-W,-2O%)$h<.,$;~,-2++)",
">G<,G-aa %.2n,:G,>G-ka %o1N1;R:-P&lf %o1A1-G,:G&lt %.,n2-G,<G&la @ 2B1",
"1uo28-,-%%1G,o<uo12-,-$$1G2.2po52-,-$%1Q1 2u.82-,-%$1G1o2uo52-,-$$>G1.",
"1;O>%&%%-OS,;:1;%-$&%@-+A:--<-@-$&%+-OA,,-::X>%&%%-OS1--:-@>$-%#&%S,-;",
"I%2-22G1@<>%<WA-u-22A1%:<%1!S-u-22B2@;<$<)S%u<22D1@;,%1!B-u-22G1%--$1~",
",--v!-vdOa,%.H3:-v/-BtOa,%oH2--v/-BvXt,%oH2--v)-BtOf,@oH1--v/-Ba+a,@+P",
"uv 5p%%,A---n-5po22%#,B,=:b-2v 8r%#,n;--n-8b 5p%%,k-%,k-pt 5u%#1A--;B>",
"I,%,,5tOw8,-Y,A,%,*ssXt2,-Y,S,%,,avOw5<&Y>S,%,*5vXh31-I>A1%,,taXw8,%I,",
",1Pt>&Q:>3l--5;2Sa>%~>:3f--2-1Ph-&!>>3f-;5-2Ph--/:>3f-;3-1Yh>$~>>3d&>7",
"&twlAX5j#,8,$,%wanB+7j+,f,$,-wwbk+2k#,w,#,=wwhAX2k#,w,%;%ftjAX2A#,w,$-",
"k,;;3--*1S>;+=f,-;d>-,1S-;%%k,;;9-$>2H-,%=h,:;9--,1S>-$=j,;-w--*1I-,%o",
"d$%%d,1-b1#%X,l$%Od,1-s1$%.1k$%#d,2-k,$%o,l$=+w,,-n1$%o1j$%+w,1-a1$%o2",
"_-,#88G+-+;t%5(:,#88S#-#;v$1(;1#d7I+&#,v%5(-3+93S#-#;v$1(;2$55Y+-+,v%,",
"YZBX-,f$=%Dp.tYAn$-<f$-%Bp.aYAb+->w$&$Bp.tYAb+:,a$-%Bp.tUSnO-,w$%-npor",
"XA<o,%>I1-<$%/$v<.1$:Y,-<O%)%B<.1%-W,&2+$)$N< ,=-!1-<+%/%B< 1$>W1-1++)",
";A<:I&ka %.3B1;Q<;G&lf %.2v,-G<<G-lt %o,b1;G,:Q$la %o3n1-G<;G&ld.%o1n1",
"1uo58---$$,G1.<u 22&,-$$1G1.2u.52-,-%$1G1o22o22-,-%$,Q1 2uo21-,-%$1G2.",
",;O-%&%%-%A<,-<>$>$&%@;+S<;---@;$&%@-+H>--<:+-&&%%-+A:,-<;O;$-%#-+B,-,",
"I=2-22G2%;<#1!S-2-r2G1%;,$1QP-2:35D1%;>%1)P-u-22B1%-:%1!A-2-82G2%-1$1Q",
",-;p)-BaOf,@oA2--v)-Bt+a,%.H1--v)-Ba+w,@oH,--v)-Bt+a>@oH5--v)-Bt+h,%.H",
"2po2u%+,b:-;n-2v 28%+>k---B-2v 22%#1n:-;b-2N 3r%+,B;-<B-2p 2u&+,b--;N,",
"I,&,,tsXa5>-Y>S,%,,pvXt5,&I,S,%,,vvXh11$Y,A,$,,tsXa5,%I,P1$,,uaXt5<%P,",
",,Yy-&!>>5f->2-3Yt;%!>>3f-;3-1Pa>&!>>8f-;5-2Pt--Y:>3f-;5-1Pt;%W:>5f->5",
"-wtMlO8lO,f,$,&wyfkO8l#1d:%:&ahhlX8l#,d,$;%wtlA.2l$,f,%;&fyMn+8l#,d>%-",
"l:-;w-%,1A>-%%f,:;w;-,1S--%-f,;;8-->3P--==f,-;w;-,1A--%$f,-;w>->2S-;=$",
"q$$$w,2-l,$%o,l$%#3,1-n1$=X,h$%#8,,;k1$%o1l$%#w,3&A1$%o1l$=+9,1-k1#%.1",
"(-3+w8S#-#:v$5(-1#w5PO=%;v#5(-3+88I#&#;v$2(-2Xw5S#&#<v#2);,@97I+-#:v$,",
"YAh+-,a$-%BpotYBB+-,f$&%Bp.tWnB+-,d$$&Bp.aYBk+-,d$-&Vu.aPSB$-,9$%%Bp.r",
"XN1.1$;W,-rO$)=b<.,=-~,-2O$(%B<o1$-Q1&1+%/%n<.1$-I,-2+$/$B<.,$-~,-2+$(",
":G,:G-yt @o,n1;R,>G&lao@o1h2-G,>G&la %o1B1-G,<G-lt %.2k,>G,>G&zdo@o1v5",
"1pop2-,-$$1G2.2uo52-,-%$1G1.1uor2-,-%$,Q1 22o82-,-&$1R1.1po32-,-%$,Q1.",
":;X;$-%+-@S>--<-o,%&%%-+A,,-<-O:&&%+-+S<-;<;O-$&%#-XA,;-<-+-%-%+-+B<-,",
"A-p:22A1@->$1!A-u:52V1%;>%1QB-u-22S1%-<$1)A&2<22G1%:<%1WH-u-22A1%-<%<!",
">--p)-Bt+t,%oH5--p)-nt+h,%oH2--v!-Ba+t,%oH,&-v/-BtOt,%oK2&-v)-Ba+a,%+H",
"2v.22%+,n---k-2v.2r%%<b>$;k-2p.5r%#1n-&;B-2v 82%#,l-&;N-2v.2r%#,n---m>",
"P>%,,tv+d71-I>S,%1*paOf21-P>A,%1,aa+a2,&U>l,%,,pa+h3,&P:l,%1,pb+d2,&Q,"
};
