/* XPM */
static char *_2776eba964f4318f9809db4119b96b2EivPkYgc3ApKLwfu[] = {
/* columns rows colors chars-per-pixel */
"70 70 208 2 ",
"   c #562D0F",
".  c #4C2D13",
"X  c #542E14",
"o  c #582F11",
"O  c #542F19",
"+  c #582F19",
"@  c #4F321C",
"#  c #553115",
"$  c #593315",
"%  c #55341C",
"&  c #59351C",
"*  c #56381C",
"=  c #5C391E",
"-  c #603719",
";  c #613A1D",
":  c #623715",
">  c #4F3725",
",  c #553622",
"<  c #5B3621",
"1  c #553924",
"2  c #5B3B24",
"3  c #563C2A",
"4  c #5B3D2A",
"5  c #613D24",
"6  c #683F21",
"7  c #613E2A",
"8  c #5D4126",
"9  c #5D412B",
"0  c #5C4132",
"q  c #5F4C3E",
"w  c #634126",
"e  c #6B4324",
"r  c #64432B",
"t  c #69452B",
"y  c #6C492E",
"u  c #6B4926",
"i  c #744C2D",
"p  c #7A4E2C",
"a  c #764824",
"s  c #75512E",
"d  c #7B512E",
"f  c #634531",
"g  c #6B4730",
"h  c #664933",
"j  c #6C4B33",
"k  c #6D4E3A",
"l  c #634E3D",
"z  c #704731",
"x  c #734E33",
"c  c #794F33",
"v  c #714E39",
"b  c #6B5035",
"n  c #6E523C",
"m  c #755235",
"M  c #7B5334",
"N  c #7C5936",
"B  c #75543B",
"V  c #7A563A",
"C  c #77583C",
"Z  c #7C593D",
"A  c #5D4F46",
"S  c #675344",
"D  c #6C5544",
"F  c #695648",
"G  c #65544A",
"H  c #745641",
"J  c #7B5641",
"K  c #755942",
"L  c #7B5B42",
"P  c #705448",
"I  c #765F4D",
"U  c #7A5E49",
"Y  c #765C51",
"T  c #735F58",
"R  c #7C5E53",
"E  c #79674F",
"W  c #77614C",
"Q  c #766354",
"!  c #7C6553",
"~  c #7C6A55",
"^  c #75665B",
"/  c #7A6659",
"(  c #7C6A5C",
")  c #77695E",
"_  c #756760",
"`  c #7A6760",
"'  c #756961",
"]  c #7A6B62",
"[  c #7A7067",
"{  c #815534",
"}  c #835936",
"|  c #8B5C37",
" . c #81563B",
".. c #835B3C",
"X. c #8A5E3D",
"o. c #86613E",
"O. c #8C613E",
"+. c #93623D",
"@. c #835646",
"#. c #835D42",
"$. c #885F43",
"%. c #856145",
"&. c #8C6344",
"*. c #8D6A46",
"=. c #846249",
"-. c #8B664A",
";. c #8E6A4C",
":. c #926644",
">. c #996644",
",. c #956A45",
"<. c #9B6B45",
"1. c #94674A",
"2. c #946B4C",
"3. c #996D4B",
"4. c #97714C",
"5. c #9B714D",
"6. c #836654",
"7. c #836955",
"8. c #8D6C53",
"9. c #846D5C",
"0. c #8B6E5A",
"q. c #8B6751",
"w. c #946D52",
"e. c #996E52",
"r. c #936F59",
"t. c #9B6E59",
"y. c #8E7157",
"u. c #8C725C",
"i. c #957154",
"p. c #9B7252",
"a. c #93745C",
"s. c #9B7459",
"d. c #9C7A5F",
"f. c #A36D44",
"g. c #A16E4C",
"h. c #A77047",
"j. c #A3724E",
"k. c #AA764D",
"l. c #A27554",
"z. c #A47956",
"x. c #AA7A54",
"c. c #A27759",
"v. c #A47A5A",
"b. c #AA7D5B",
"n. c #B37D54",
"m. c #B27F5B",
"M. c #816E60",
"N. c #847265",
"B. c #8B7564",
"V. c #897769",
"C. c #8A786C",
"Z. c #947965",
"A. c #947C6C",
"S. c #987C67",
"D. c #8B7D74",
"F. c #907E72",
"G. c #A47C61",
"H. c #A87F69",
"J. c #AD7E64",
"K. c #AE8056",
"L. c #AE825D",
"P. c #B58256",
"I. c #BC8355",
"U. c #B5855D",
"Y. c #B4845C",
"T. c #B9865D",
"R. c #BA855D",
"E. c #B6885E",
"W. c #BB895E",
"Q. c #9C836F",
"!. c #8E837C",
"~. c #86837E",
"^. c #958374",
"/. c #9B8573",
"(. c #93847B",
"). c #96887F",
"_. c #988A7F",
"`. c #938876",
"'. c #A58063",
"]. c #AD8462",
"[. c #A4846B",
"{. c #AD8669",
"}. c #AD896D",
"|. c #AE8864",
" X c #B28662",
".X c #B48762",
"XX c #B48662",
"oX c #BA8762",
"OX c #B58966",
"+X c #B58965",
"@X c #B98960",
"#X c #BA8A64",
"$X c #B3876B",
"%X c #B58B6A",
"&X c #BA8C6A",
"*X c #B9876C",
"=X c #BC906D",
"-X c #AB8B73",
";X c #B38B71",
":X c #B79073",
">X c #BC9372",
",X c #C38555",
"<X c #C08B63",
"1X c #878181",
"2X c #8D8682",
"3X c #918782",
"4X c #938A83",
"5X c #928D89",
/* pixels */
",X,XI.W.z.,.3.2.,.3.2.3.3.Z V M N M M { c X.@XP.T.T.j.<.3.3.>.+.<.<.2.N m C C C V M V B < 4 4 3 J C m K D H H C #.OX XXX%X:.i { p <..XE.Y.E.",
"I.I.I.R.z.:.3.3.3.e.2.2.2.M V V N N  .V { X..XT.Y.Y.p.>.e.3.3.<.<.4.4.N m C V N C V V B < 3 3 3 B B C K m H V m  .OX.X.X+X:.M { d 3.OX#XY.T.",
"P.T.T..Xz.,.3.3.,.,.w.e.2.Z V V m m Z Z V $.]. X XOXp.1.w.,.;.,.;.;.;.Z m V Z C C V C m 4 2 4 w B V J L V L M p | W.<XU. X&.x V x -.{.*X].+X",
"&XOXOX.Xv.3.2.2.s.;.i.e.w.#.V B V B B m c $.{.:X%X$XG.i.i.r.i.r.i.i.8.#.V V V V Z Z C b w % $ % B V M m c { p { +.n.R.T.XX-.V C M r.;X:X$X%X",
"2.;.2.2.<.2.2.3.2.m B m x V V Z C H B V V Z #.#.%.#.V m C B H B H H v Z M V N x w y r b W %.%.&. .V V N 1.l.l.k.h.k.k.k.b.V r j g v -.$.#.#.",
"m m m d O.3.2.i.L % = & 5 x Z J B L C L C x < O % , # * * 1 3 , , , 5 v V  .V y * 2 * h ;.2.2.2.N M M c p.#X@X@XI.f.<.1.w.t , 1 , % & O % = ",
"L C V M &.5.,.3.-.= w 2 4 B M V V L m N m m 7 7 4 7 4 w 8 1 9 3 3 4 w Z  .{ M t 2 9 1 b i.4.3.3.#.V N p 3.@XU.Y. X3.2.2.s.j 1 w r 7 7 7 4 7 ",
"B m m d +.5.2.3.=.& 4 , 2 v J J C V m s d M & < < < & = * % 3 3 3 3 < M p p { e = 9 > b a.;.3.1.V C M p j.&X#X%X'.8.0.u.0.r # % % % < 2 < < ",
"&.&.O.:.>.+.1.&.#.r r f j j k v z $.:.X.&.o.x z x x y u y m h f f 9 t -.o.,.,.i & 9 1 h 0.-.2.1.L m V M ,.z.v.d.Z.A.N.C.Z.#.V N L M < t t t ",
"+X&X#X X,.p M N L m H H B r 4 5 X :.&X=XOX|.e.e.1.i.p.4.i.i.=.J J C Z .X.X+X+X%.& 9 3 f J x M M H C  .p a : $ @ A D.3X(.^.[.&XXX%Xd.Z Z V C ",
"Y.m.@X+X2.d M V C B L L C w < < $ 3.+Xb.E.+X2.2.e.w.2.*.,.*.&.V N N } L.Y.L.#X:.X 7 1 r C M V @.K B Z N i $ 4 3 A 3X5X(.A.{.XXXX%Xp.M m V V ",
"W.P.+X%X;.m C C C m M M V 5 5 w   2.&X X+X|.:.2.3.3.:.5.p.5.-.p M s o.+X.X].+X..$ 5 < r @.@.v V J H C V a & 8 > G D.D.`./.}. XT.+Xp.d N V M ",
"R.R.&X{.6.B K H C Z N  .Z 5 = 5 $ &.|.{.}.b.4.5.,.2.,.w.3.>.-.} d d } x.#X%X%X&.o ; 2 r x Z M H H H C Z y = 9 1 l /././.H.}. X.X#Xp.V  .V M ",
"f.f.p.a.9.Q ( Q y.H.b.J.J. .m m M m x y m Z *.4.2.p.$... . .3.x.E.K.x.x.5.3.p.1.:.2.,.-.Z V C J w 7 r r y k K j U -X-X[.'.v.3.3.l.-.p m M B ",
"f.<.;.0.M.] ( Q u.;XOX#X#X$.M Z m i % & % 5 ;.i.*.3. .M M c 3.#XY.T.#X3.>.2.3.e.3.2.3.;.c m V C t < = = h K L B %.|. X+X%Xl.:.3.2.-.M #.Z V ",
"<.,.w.0.( ^ ) / B.}.J.XXoX| M V V j < f 4 t i.;.3.e.J V Z m ;.+X.XU.XX2.w.e.1.2.e.,.3.2.x V L C w 2 w 2 k B m M ..OX.XU.+X5.:.p.e.-.x V M M ",
"<.2.;.y.9.~ ! 7.Z.}.;X&X$X} c i c j , 3 3 f w.3.3.3.Z B Z m 1.%XOX&XL.3.2.p.2.3.w.s.i.;.L v C V < % . @ f V C m o.+X@X+X+Xl.3.3.s.&.M V M M ",
"2.4.i.8.7.W U U 7.G.S.z.b.3.g.p.w.#.1 8 1 r 8.2.1.2...V C V #.l.e.p.p.,.3.3.1.$.V C L L J C C V ;.w.w.8.%.C x M ..x.z.x.z.&. .#.Z C Z Z V V ",
":.2.2.8.W H C H C 8.i.2.3.Y..X+X%X2.# 8 , r w.p.3.3...M M M V c i i { >.3.3.:.M o = = w m C m { m.T.XX$Xi.V m M d <.+.<.>.y % > , t B C M M ",
"3.5.3.w.#.B C b Z i.2.,.>.U.U.P.&X;.. 8 8 h ,.3.3.3.#.V J @. .c  .M M 1.<.1.p.M $ ; = t V Z M { I.,XT.%Xi.M V M | <.f.<.w.j 3 0 , j H L J L ",
">.<.>.e.=.M L J %.i.4.<.+..XE..X%X1.X 5 2 t ,.3.2.1. .m m C  .N V V ..w.w.w.p.m = w = w V V N { n.,XW.&Xs.m V N { <.1.3.w.k > 3 2 t m M B m ",
"g.g.e.c.$.y B x V 2.*.,.<.K.K.P.XX>.; 7 < y 2.p.5.5...m m m m m x x C -.-.-.-.m 2 w 8 y m B V M x.n.b.'.;.C C B N -.:.w.;.n 3 0 4 i #.#.$.#.",
"<Xm.m.$X#.$ 5 & m 4.,.5.<.4.<.,.g.$.c J v Z 3.>.:.,.y 1 8 8 2 2 9 9 3 1 4 2 9 j K K B K K J C V 5 5 5 w j m B C V L J B V V H L M 3.].OX XXX",
"oX,XoX&X&.o 5 = y i.2.2.4.<.2.2.g.|  .V V #.w.w.5.i.b > 3 9 1 3 3 3 3 4 9 1 1 l K K D K C C C m 3 4 1 , h L H K B H K B C Z V M p 3.XX XY.@X",
"R.n.Y.&Xo.$ 5 = y i.2.;.w.2.e.2.3.o.m L B H a.2.2.8.v , 0 3 3 4 3 3 3 4 2 2 2 v K H U B C m { Z 9 3 9 1 h L B H H B C C V { M { p <.@X@X.XR.",
"R.W.@X#X..$ 5 & m 2.w.w.r.e.e.w.w.&.n K n K r.w.e.8.v , 3 3 4 4 & = = = = & = r C m B m Z N M d 4 & = 1 t B C M C C V M M M { { d 3.+X.X@X.X",
"P.Y..X+X-.y M j B #.=.#.@.#.#.#.U W E / / ! U Z #.#.B j v j #.c.d.s.v.l.l.v.c.,.M M m X.l.x.x.l.x.j.v.v.-.Z Z V ..&.1.+.O...p { x o.d.p.p.p.",
"T.E.Y.+X3.m #.B M B B M M c v V D Q ] ' ] / K B V c M #.Z p 3.>X#XXX&X#X#X#X%X3.d { { +.#X#X@X<XW.W.<X<X3.x M c  .2.5.5.3.X.M M m X.i.,.1.,.",
"@XE. X|.2.x V C #.M V M V  .V L D ^ ] _ _ ) D J V M N M N p ,.P.Y.m.oXY.Y.XX@X:.p { d O..XU.P.P.I.I.P.@X3.c ..Z V 2.2.2.2...C C V #.i.;.w.2.",
".X+X&X$Xw.m V Z x M p p d d d m H Y ( ) M./ B V M { m m Z M 2.&X#X#X#X#XXXoX&X3.p } M &.&X+X@XT.W.<XT.OX3.c V M L i.i.;.w.L V V M ..w.2.2.2.",
"l.c.b.c.-.M B M Z 3.2.3.3.,.,.:.w.q.7.~ 6.7.=.%.&.#.m h m t L G.l.l.j.b.v.b.b.&.y m y ..G.b.L.b.s.v.v.b.2.N M C U Z.B.B.d.7.Z Z X.O.3.3.3.3.",
"p p c c M V Z x &.%XXX.X<X@X@X&XOXv.i.8.r.y.w.2.2.w.m , 3 3 f B x { M 1.2.2.1.v % = % j 2.;.5.2.m m y s m m B H ! ^.^.`./.u.i.p.3.2.3.,.3.2.",
"N  .V Z V V V m -.XXXXY.R.W.R.Y.OXz.,.4.i.2.w.2.2.w.j 2 2 2 h L M V Z 2.w.w.e.B % w 2 y i.3.2.5.$.@.M m V N Z H Y (.F.3XF.a.r.2.3.2.2.3.w.e.",
"M V m V C m V p :.XX#X#XR.oXm.oXOXz.:.,.3.,.i.w.w.4.y = 2 , h K V B C 2.a.w.r.C = < = y i.2.2.:.{ M m m m m C H 6.F.(.`.).B.r.w.w.2.2.2.2.w.",
" . .C Z V C Z N -.L.m.m.m.oX@XXX.Xz.,.3.2.,.2.,.w.;.j = 9 1 h H H m m ;.r.-.-.V < w 7 x ;.3.i.2.....N N J V V J 6.A.A.^./.0.q.1.-.2.w.w.;.2.",
"2.,.,.;.%.m m N M ..} } | 1.3.3.5.&.{ M { } ,.i.i.i.x 2 5 1 3 r 4 5 r Z Z V #.#.r.;.;.=.L m N m V m m V $.q.w.w.q.a.B.0.u.k r 7 e x V Z Z V ",
"3.2.i.i.%.m m m N V c c c 1.2.>.3.o.{ d N ..2.e.8.i.j & 4 2 3 1 = = 2 B m c Z $.s.w.e.;.V m V V ..Z V V %.e.e.e.4.4.y.;.y.h $ < & e m M M M ",
"2.2.i.2.#.m V Z V M V Z V 2.e.3.4.o.{ {  . .:.;.w.i.k , 2 7 9 2 8 2 5 V Z Z M $.w.;.w.;.C V C m m V Z B =.e.1.e.2.,.*.*.i.s 5 7 = y Z Z V N ",
"w.3.2.;...M m C C m V Z B ;.r.w.i.&.M c V ..w.a.r.a.k 2 4 1 3 3 2 2 ; B M J V &.w.;.3.1.m Z C C B K L m $.t.1.>.<.<.5.,.3.y + ; = t m M m M ",
"X.X.o.o.&.&.;.=.#.j r j r #.#.#.#.Z M V V v M x B C 9 , 4 3 f k j j j J B Z x &.3.3.3.-.x Z C H h h h t &.].x.n.x.k.x.z.]...y x j Z &.-.&.&.",
"m M M M :.2.w.i.=.2 2 2 2 B V m M C V C M B , , = , 1 4 4 1 h K L B C V B M c &.3.3.3.:.N M C H 4 1 4 X ,.#XY.W.W.,X<Xm.*X-.m C B W 5.2.3.2.",
"N m N d :.3.3.r.=.1 1 4 5 v V V Z V V V B B 7 7 4 3 7 w 7 1 h J C m B C C M V &.3.3.1.:.{ M M K 0 3 4 # ,.#XP.W.P.@XoXJ.*X-.m L B #.i.,.2.:.",
"Z m Z M &.3.2.w.$.1 1 2 < x M M x m B L V x = & < & , 1 % < r v m C B V L C V &.<.>.<.+.{ p m C 0 3 4 & ,.#XW.W.@XoX*XOX}.=.b n B W r.w.5.3.",
"C V N d :.2.2.w.-.r w r r &.&.&.;.=.M V B C j x x j M V M V #.#...#.#.x x v j ,.l.l.g.f.:.X.&.-.f 3 w $ &.Y.x.x.n.b.m.J.[.y.E ~ ! 7.=.-.:.:.",
"C C V M :.3.2.3.e.J J J Z ].XXOX|.s.M M M ..2.i.p.w.].%X%X%Xb.5.3.;.;.w 2 2 = w.&XXXoXoXT..X%X}.l 3 7 + @.l.<.3.3.<.1.2.a.Z.^.`.^.B.L C m M ",
"B C m d &.<.3.w.=.B C B M ].#XU.+X5.i N V ..2.2.2.:.L.%X#X#Xl.>.3.,.4.w & 2 % s.OXm.Y.I.W.T.XXOXk 1 7 +  .e.:.,.<.3.3.2.8.A.`.!.4XB.n m m M ",
"D C V M :.3.3.3.1.V V Z c Y.T.T.%Xp.i M d M 4.2.3.,.m..XY.@Xx.<.,.,.w.r 8 8 % a.*X@XR.R.R.R.Y.].j , 7 < @.t.4.4.,.+.3.p.0.^.3X~.(.N.S U ..Z ",
"C C V M &.2.2.3.-.V V Z { b.U.E.OX5.i } { N 4.2.3.1. X#XR.#Xx.,.3.i.;.3 3 9 @ y.%XXXR.R.R.@X+X{.k , 7 < L i.;.4.4.<.,.3.8.A.).!.).B.S K C m ",
"2.2.:.2.%.N Z Z L C m Z  .>.s.3.p.-.d { m  .i.3.2.,.&.X.....:.2.2.r.0./ ^ ^ ^ 9.a.i.p.2.u x k h 3 3 f O @.w.2.5.+.5.,.2.p.=.U U R D 9 9 r 8 ",
"3.3.3.3.%.m V m C C C V V 1.e.2.3.X.M N m Z i.2.2.2.} m M M #.w.8.8.u.( ) ' ) 9.0.8.3.X.& & , 3 3 4 7 , Z w.2.,.<.5.:.3.3.L v J H h , 1 8 3 ",
">.2.w.2.#.m V V C C C m m 1.3.2.3.%.M Z V ..i.3.2.p...d V N #.i.2.8.y.~ ) ) ^ 9.0.i.p.&.; = 1 9 2 4 7 % J e.w.e.5.5.:.p.2...M Z L v 7 4 r 7 ",
"t.a.e.r.=.J L V m Z N N Z ,.3.2.5.&.m V V Z ;.i.1.2.} i p M ..2.2.i.0.! ( ( ( 9.8.w.2.X.; = 2 1 < = < $  .w.e.t.2.;.2.i.,...x x v t O O O O ",
"J J J J v j j h s C m N N ,.4.,.2.%.V m B V #.&.&.&.3.p.3.l.3.$.&.&.%.U I Q U ! -.%.&...i j y t N M M m &.$.$.$.q.&.-.*.#.4.5.4.p.5.,.,.>.:.",
", , , 2 2 < 5 < r C m m M *.*.4.3.%.V C V V V V c p b.&XOXXXl.p M M V B H D n B m m M M m C C C 4.5.p.5.&.M z @.J V x s p v.%XOXE.&X+X&X%XoX",
"4 8 3 9 4 2 7 & t V N N N *.4.;.r.%.V C L V m M  .d l.&Xb.%Xb.p { { V V L U B H V m V N M J C C &.:.4.i.=.M v L V c N ..M K.+XK.Y.E.U.T..XY.",
"2 2 2 2 < < 5 & w Z C m C ;.4.4.e.=.B m V L B V M M b.#X XoXl.p { M N m V H H L V V ..V B C m V i.3.3.;.-.J J Z J c M d a K.#XE.T.#XU.T.T.U.",
"8 8 w 8 r y r j x V Z M B ;.2.=.;.#.V m L C B V V { p.OXL.m.5.} .. .Z Z m m C B C m C m m m C m $.q.q.-.W m Z m @.X.o.o.O.h.E.P.Y.m. Xm.m.XX",
"C C C C %.r.w.i.1. .V @.M B V Z V Z V C J C B V V M &.5.3.l.5.-.,.p.2.Z N #.J t = 4 1 4 2 1 4 < 4 5 5 r s C N s o.].+X&XP.k.<.<.<.3.1.3.<.1.",
"C C m C =.i.;.;.-.v M V V Z V Z V Z V C U H C V V V :.3.1.2.3.2.8.w.2.m V V V t 2 3 9 3 3 4 8 4 7 4 1 2 u V M s N +XL.L..Xh.+.f.3.3.2.4.3.3.",
"s N m m -.i.i.i.q. . .V  .V V B m V V Z B K C L M V -.3.2.2.2.3.w.8.w.Z N M V x 2 1 2 2 1 2 2 1 7 < w 2 y N N M o.+XL.E.XXl.<.g.<.3.,.<.3.1.",
"N V m N &.;.4.2.-.m M Z c V M V M Z m L B K B K V Z ;.p.w.s.w.r.i.w.2...d p M 5 = 1 3 3 1 2 5 < < , 1 < r V m s o.|.+X=X Xl.,.3.3.<.4.<.,.3.",
"2.2.-.-.&...%.C ..N N N  .p.v.b.v.2.m V B C r r w r C #.L #.V i j y x l.b.x.].2.x k n n n m m x $.$.-.$.#...N  .Z &.&.,.&.:.4.5.*.2.,.,.,.<.",
"e.e.2.e.X.m N s s N d d d ].&X].>Xs.m V B K 3 = 2 2 x C C M y = 5 & ; &X&XXX$X,.M H H U K C C N 2.i.p.w.$.c v Z Z m m m N *.;.*.2.3.2.3.4.3.",
"e.1.e.t.#.m N M d } d { { ].OX X X2.m Z C n 8 8 < 2 m K n K m = = 5 5 OXY.L.&X1.B B C K C V m N ,.2.:.3.-.V J V J M N M m ;.;.i.2.w.2.w.2.2.",
">.3.1.e.#.B V m d { a p { n.OXXX*X3.p x N x = 2 5 % S S S D k & = = e ].&X X&X2.p m m V v Z V m 3.2.3.e.=.D F F k V c d M 2.w.e.2.e.2.e.e.w.",
"3.>.e.w.$.B V M } 3.<.<.>.m.b.b.b.e.X.X.o...t h z 5 / ] ] ] W w y t y v.b.z.L.,.X.X.$.#.V V V V &.&.&.&.7.( ] ] 9.&.X.| | &.#.-.;.-...#.#.#.",
">.3.e.w.#.B V m 1.oXXXR.@Xg.>.2.2.5.,.3.3.1.J H  .C D.4X4X`.a.C V C M 4.2.2.5.3.2.3.2.-.M V V V x { M C 0.).4X(.A.w.3.3.2.#.x Z m y & & = = ",
"g.1.1.e.#.C V m &.OX@XXX#X3.>.3.:.3.i.3.2.2.J H m m C.2X!.`.9.B C V Z *.,.2.<.,.3.3.w.-.M B C V M Z c x M.3X2X3X/.r.w.3.p.#.v V L k = 5 < 4 ",
"3.2.2.w.%.B V m &.OXXXY.oXf.3.3.3.3.2.3.,.,.H C V C D.3X2X(.V.H B V Z 2.3.3.,.3.2.3.w.-.V M B V V @.V v M.4X1X3X^.q.w.2.s.#.V K C n < 4 1 4 ",
"<.2.3.3.%.B V M >.XX@XU.XX3.3.:.3.2.:.3.3.2.B K B B D.2X2X(.N.n V V  .:.2.3.,.3.3.e.w.1.Z V M B m V v H N.4X1X5XF.0.i.:.w.L V B H h 2 5 3 4 "
};
